# MagicaVoxel @ Ephtracy

# group
o 

# material
mtllib log.mtl
usemtl palette

# normals
vn -1 0 0
vn 1 0 0
vn 0 0 1
vn 0 0 -1
vn 0 -1 0
vn 0 1 0

# texcoords
vt 0.396484 0.5
vt 0.537109 0.5
vt 0.873047 0.5

# verts
v -0.5 -0.1 0.2
v -0.5 -0.1 -0.3
v -0.5 0 0.1
v -0.5 0 -0.2
v -0.5 0.1 0.1
v -0.5 0.1 -0.2
v -0.5 0.2 0.2
v -0.5 0.2 -0.3
v 0.5 -0.1 0.2
v 0.5 -0.1 -0.3
v 0.5 0 0.1
v 0.5 0 -0.2
v 0.5 0.1 0.1
v 0.5 0.1 -0.2
v 0.5 0.2 0.2
v 0.5 0.2 -0.3
v -0.5 -0.1 0.2
v -0.5 0.2 0.2
v 0.5 -0.1 0.2
v 0.5 0.2 0.2
v -0.5 0 -0.2
v -0.5 0.1 -0.2
v -0.4 0.1 -0.2
v -0.1 0.1 -0.2
v 0.5 0 -0.2
v 0.5 0.1 -0.2
v -0.5 0 0.1
v -0.5 0.1 0.1
v 0.1 0.1 0.1
v 0.4 0.1 0.1
v 0.5 0 0.1
v 0.5 0.1 0.1
v -0.5 -0.1 -0.3
v -0.5 0.2 -0.3
v 0.5 -0.1 -0.3
v 0.5 0.2 -0.3
v -0.5 -0.1 0.2
v 0.5 -0.1 0.2
v -0.5 -0.1 -0.3
v 0.5 -0.1 -0.3
v -0.5 0.1 0.1
v 0.1 0.1 0.1
v 0.4 0.1 0.1
v 0.5 0.1 0.1
v 0.1 0.1 0
v 0.4 0.1 0
v -0.4 0.1 -0.1
v -0.1 0.1 -0.1
v -0.5 0.1 -0.2
v -0.4 0.1 -0.2
v -0.1 0.1 -0.2
v 0.5 0.1 -0.2
v -0.5 0 0.1
v 0.5 0 0.1
v -0.5 0 -0.2
v 0.5 0 -0.2
v -0.5 0.2 0.2
v 0.5 0.2 0.2
v 0.1 0.2 0.1
v 0.4 0.2 0.1
v 0.1 0.2 0
v 0.4 0.2 0
v -0.4 0.2 -0.1
v -0.1 0.2 -0.1
v -0.4 0.2 -0.2
v -0.1 0.2 -0.2
v -0.5 0.2 -0.3
v 0.5 0.2 -0.3

# faces
f 3/2/1 2/2/1 1/2/1
f 4/2/1 2/2/1 3/2/1
f 5/2/1 3/2/1 1/2/1
f 6/2/1 2/2/1 4/2/1
f 7/2/1 5/2/1 1/2/1
f 7/2/1 6/2/1 5/2/1
f 8/2/1 2/2/1 6/2/1
f 8/2/1 6/2/1 7/2/1
f 9/2/2 10/2/2 11/2/2
f 11/2/2 10/2/2 12/2/2
f 9/2/2 11/2/2 13/2/2
f 12/2/2 10/2/2 14/2/2
f 9/2/2 13/2/2 15/2/2
f 13/2/2 14/2/2 15/2/2
f 14/2/2 10/2/2 16/2/2
f 15/2/2 14/2/2 16/2/2
f 19/2/3 18/2/3 17/2/3
f 20/2/3 18/2/3 19/2/3
f 23/2/3 22/2/3 21/2/3
f 24/2/3 23/2/3 21/2/3
f 25/2/3 24/2/3 21/2/3
f 26/2/3 24/2/3 25/2/3
f 27/2/4 28/2/4 29/2/4
f 27/2/4 29/2/4 30/2/4
f 27/2/4 30/2/4 31/2/4
f 31/2/4 30/2/4 32/2/4
f 33/2/4 34/2/4 35/2/4
f 35/2/4 34/2/4 36/2/4
f 39/2/5 38/2/5 37/2/5
f 40/2/5 38/2/5 39/2/5
f 45/2/5 42/2/5 41/2/5
f 45/3/5 43/3/5 42/3/5
f 46/2/5 44/2/5 43/2/5
f 46/3/5 43/3/5 45/3/5
f 47/2/5 45/2/5 41/2/5
f 47/2/5 46/2/5 45/2/5
f 48/2/5 46/2/5 47/2/5
f 49/2/5 47/2/5 41/2/5
f 50/1/5 48/1/5 47/1/5
f 50/2/5 47/2/5 49/2/5
f 51/2/5 46/2/5 48/2/5
f 51/1/5 48/1/5 50/1/5
f 52/2/5 44/2/5 46/2/5
f 52/2/5 46/2/5 51/2/5
f 53/2/6 54/2/6 55/2/6
f 55/2/6 54/2/6 56/2/6
f 57/2/6 58/2/6 59/2/6
f 59/2/6 58/2/6 60/2/6
f 57/2/6 59/2/6 61/2/6
f 59/3/6 60/3/6 61/3/6
f 60/2/6 58/2/6 62/2/6
f 61/3/6 60/3/6 62/3/6
f 57/2/6 61/2/6 63/2/6
f 61/2/6 62/2/6 63/2/6
f 63/2/6 62/2/6 64/2/6
f 57/2/6 63/2/6 65/2/6
f 63/1/6 64/1/6 65/1/6
f 64/2/6 62/2/6 66/2/6
f 65/1/6 64/1/6 66/1/6
f 57/2/6 65/2/6 67/2/6
f 65/2/6 66/2/6 67/2/6
f 62/2/6 58/2/6 68/2/6
f 67/2/6 66/2/6 68/2/6
f 66/2/6 62/2/6 68/2/6
