# MagicaVoxel @ Ephtracy

# group
o 

# material
mtllib truck.mtl
usemtl palette

# normals
vn -1 0 0
vn 1 0 0
vn 0 0 1
vn 0 0 -1
vn 0 -1 0
vn 0 1 0

# texcoords
vt 0.0136719 0.5
vt 0.841797 0.5
vt 0.923828 0.5
vt 0.958984 0.5
vt 0.962891 0.5
vt 0.966797 0.5
vt 0.990234 0.5
vt 0.994141 0.5

# verts
v -1 0 1.2
v -1 0 0.8
v -1 0 0.2
v -1 0 -0.2
v -1 0 -0.8
v -1 0 -1.2
v -1 0.3 2
v -1 0.3 1.9
v -1 0.3 1.2
v -1 0.3 0.8
v -1 0.3 0.2
v -1 0.3 -0.2
v -1 0.3 -0.8
v -1 0.3 -1.2
v -1 0.3 -2
v -1 0.4 2
v -1 0.4 1.9
v -1 0.4 1.2
v -1 0.4 0.8
v -1 0.4 0.2
v -1 0.4 -0.2
v -1 0.4 -0.8
v -1 0.4 -1.2
v -1 0.5 2
v -1 0.5 -2
v -0.9 0.5 2
v -0.9 0.5 1.9
v -0.9 0.5 1
v -0.9 0.5 0.9
v -0.9 0.5 0.0999999
v -0.9 0.5 -2.38419e-007
v -0.9 0.5 -2
v -0.9 0.6 2
v -0.9 0.6 1.9
v -0.9 0.9 0.3
v -0.9 0.9 0.0999999
v -0.9 0.9 -0.3
v -0.9 0.9 -0.8
v -0.9 0.9 -1.2
v -0.9 0.9 -1.7
v -0.9 1 2
v -0.9 1 1.7
v -0.9 1 0.3
v -0.9 1 0.0999999
v -0.9 1 -0.4
v -0.9 1 -0.7
v -0.9 1 -1.2
v -0.9 1 -1.6
v -0.9 1.1 1.7
v -0.9 1.1 1
v -0.9 1.1 0.9
v -0.9 1.1 0.0999999
v -0.9 1.2 0.9
v -0.9 1.2 0.0999999
v -0.9 1.2 -0.4
v -0.9 1.2 -0.6
v -0.9 1.3 -0.3
v -0.9 1.3 -0.6
v -0.9 1.5 -0.3
v -0.9 1.5 -0.4
v -0.9 1.7 -0.4
v -0.9 1.7 -0.7
v -0.9 1.7 -1.2
v -0.9 1.7 -1.6
v -0.9 1.8 -0.3
v -0.9 1.8 -0.8
v -0.9 1.8 -1.2
v -0.9 1.8 -1.7
v -0.9 1.9 0.9
v -0.9 1.9 0.0999999
v -0.9 2 1
v -0.9 2 -2.38419e-007
v -0.9 2 -2
v 0.9 0 1.2
v 0.9 0 0.8
v 0.9 0 0.2
v 0.9 0 -0.2
v 0.9 0 -0.8
v 0.9 0 -1.2
v 0.9 0.3 1.2
v 0.9 0.3 0.8
v 0.9 0.3 0.2
v 0.9 0.3 -0.2
v 0.9 0.3 -0.8
v 0.9 0.3 -1.2
v -0.9 0 1.2
v -0.9 0 0.8
v -0.9 0 0.2
v -0.9 0 -0.2
v -0.9 0 -0.8
v -0.9 0 -1.2
v -0.9 0.3 1.2
v -0.9 0.3 0.8
v -0.9 0.3 0.2
v -0.9 0.3 -0.2
v -0.9 0.3 -0.8
v -0.9 0.3 -1.2
v 0.9 0.5 2
v 0.9 0.5 1.9
v 0.9 0.5 1
v 0.9 0.5 0.9
v 0.9 0.5 0.0999999
v 0.9 0.5 -2.38419e-007
v 0.9 0.5 -2
v 0.9 0.6 2
v 0.9 0.6 1.9
v 0.9 0.9 0.3
v 0.9 0.9 0.0999999
v 0.9 0.9 -0.3
v 0.9 0.9 -0.8
v 0.9 0.9 -1.1
v 0.9 0.9 -1.6
v 0.9 1 2
v 0.9 1 1.7
v 0.9 1 0.3
v 0.9 1 0.0999999
v 0.9 1 -0.4
v 0.9 1 -0.8
v 0.9 1 -1.2
v 0.9 1 -1.5
v 0.9 1.1 1.7
v 0.9 1.1 1
v 0.9 1.1 0.9
v 0.9 1.1 0.0999999
v 0.9 1.2 0.9
v 0.9 1.2 0.0999999
v 0.9 1.2 -1.3
v 0.9 1.2 -1.5
v 0.9 1.3 -1.3
v 0.9 1.3 -1.6
v 0.9 1.5 -1.5
v 0.9 1.5 -1.6
v 0.9 1.7 -0.4
v 0.9 1.7 -0.8
v 0.9 1.7 -1.2
v 0.9 1.7 -1.5
v 0.9 1.8 -0.3
v 0.9 1.8 -0.8
v 0.9 1.8 -1.1
v 0.9 1.8 -1.6
v 0.9 1.9 0.9
v 0.9 1.9 0.0999999
v 0.9 2 1
v 0.9 2 -2.38419e-007
v 0.9 2 -2
v 1 0 1.2
v 1 0 0.8
v 1 0 0.2
v 1 0 -0.2
v 1 0 -0.8
v 1 0 -1.2
v 1 0.3 2
v 1 0.3 1.9
v 1 0.3 1.2
v 1 0.3 0.8
v 1 0.3 0.2
v 1 0.3 -0.2
v 1 0.3 -0.8
v 1 0.3 -1.2
v 1 0.3 -2
v 1 0.4 1.2
v 1 0.4 0.8
v 1 0.4 0.2
v 1 0.4 -0.2
v 1 0.4 -0.8
v 1 0.4 -1.2
v 1 0.5 2
v 1 0.5 1.9
v 1 0.5 -2
v -1 0.3 2
v -1 0.4 2
v -1 0.5 2
v -0.9 0.3 2
v -0.9 0.4 2
v -0.9 0.5 2
v -0.9 0.6 2
v -0.9 1 2
v -0.6 0.3 2
v -0.6 0.6 2
v -0.2 0.3 2
v -0.2 0.5 2
v 0.2 0.3 2
v 0.2 0.5 2
v 0.6 0.3 2
v 0.6 0.6 2
v 0.9 0.3 2
v 0.9 0.5 2
v 0.9 0.6 2
v 0.9 1 2
v 1 0.3 2
v 1 0.5 2
v -0.9 1 1.7
v -0.9 1.1 1.7
v 0.9 1 1.7
v 0.9 1.1 1.7
v -1 0 1.2
v -1 0.3 1.2
v -0.9 0 1.2
v -0.9 0.3 1.2
v 0.9 0 1.2
v 0.9 0.3 1.2
v 1 0 1.2
v 1 0.3 1.2
v -0.9 1.1 1
v -0.9 2 1
v -0.8 1.1 1
v -0.8 1.9 1
v 0.8 1.1 1
v 0.8 1.9 1
v 0.9 1.1 1
v 0.9 2 1
v -1 0 0.2
v -1 0.3 0.2
v -0.9 0 0.2
v -0.9 0.3 0.2
v 0.9 0 0.2
v 0.9 0.3 0.2
v 1 0 0.2
v 1 0.3 0.2
v -1 0 -0.8
v -1 0.3 -0.8
v -0.9 0 -0.8
v -0.9 0.3 -0.8
v 0.9 0 -0.8
v 0.9 0.3 -0.8
v 1 0 -0.8
v 1 0.3 -0.8
v -1 0 0.8
v -1 0.3 0.8
v -0.9 0 0.8
v -0.9 0.3 0.8
v 0.9 0 0.8
v 0.9 0.3 0.8
v 1 0 0.8
v 1 0.3 0.8
v -1 0 -0.2
v -1 0.3 -0.2
v -0.9 0 -0.2
v -0.9 0.3 -0.2
v 0.9 0 -0.2
v 0.9 0.3 -0.2
v 1 0 -0.2
v 1 0.3 -0.2
v -1 0 -1.2
v -1 0.3 -1.2
v -0.9 0 -1.2
v -0.9 0.3 -1.2
v 0.9 0 -1.2
v 0.9 0.3 -1.2
v 1 0 -1.2
v 1 0.3 -1.2
v -1 0.3 -2
v -1 0.5 -2
v -0.9 0.3 -2
v -0.9 0.5 -2
v -0.9 2 -2
v -0.8 0.5 -2
v -0.8 0.6 -2
v -0.8 1.9 -2
v -0.5 0.3 -2
v -0.5 0.4 -2
v -0.5 0.5 -2
v -0.3 0.9 -2
v -0.3 1 -2
v -0.2 0.3 -2
v -0.2 0.4 -2
v -0.1 0.6 -2
v -0.1 0.9 -2
v -0.1 1 -2
v -0.1 1.9 -2
v 0.1 0.6 -2
v 0.1 0.9 -2
v 0.1 1 -2
v 0.1 1.9 -2
v 0.2 0.3 -2
v 0.2 0.4 -2
v 0.3 0.9 -2
v 0.3 1 -2
v 0.5 0.3 -2
v 0.5 0.4 -2
v 0.5 0.5 -2
v 0.8 0.5 -2
v 0.8 0.6 -2
v 0.8 1.9 -2
v 0.9 0.3 -2
v 0.9 0.5 -2
v 0.9 2 -2
v 1 0.3 -2
v 1 0.5 -2
v -1 0 1.2
v -0.9 0 1.2
v 0.9 0 1.2
v 1 0 1.2
v -1 0 0.8
v -0.9 0 0.8
v 0.9 0 0.8
v 1 0 0.8
v -1 0 0.2
v -0.9 0 0.2
v 0.9 0 0.2
v 1 0 0.2
v -1 0 -0.2
v -0.9 0 -0.2
v 0.9 0 -0.2
v 1 0 -0.2
v -1 0 -0.8
v -0.9 0 -0.8
v 0.9 0 -0.8
v 1 0 -0.8
v -1 0 -1.2
v -0.9 0 -1.2
v 0.9 0 -1.2
v 1 0 -1.2
v -1 0.3 2
v -0.9 0.3 2
v -0.6 0.3 2
v -0.2 0.3 2
v 0.2 0.3 2
v 0.6 0.3 2
v 0.9 0.3 2
v 1 0.3 2
v -1 0.3 1.9
v -0.9 0.3 1.9
v -0.6 0.3 1.9
v -0.2 0.3 1.9
v 0.2 0.3 1.9
v 0.6 0.3 1.9
v 0.9 0.3 1.9
v 1 0.3 1.9
v -1 0.3 1.2
v -0.9 0.3 1.2
v 0.9 0.3 1.2
v 1 0.3 1.2
v -1 0.3 0.8
v -0.9 0.3 0.8
v 0.9 0.3 0.8
v 1 0.3 0.8
v -1 0.3 0.2
v -0.9 0.3 0.2
v 0.9 0.3 0.2
v 1 0.3 0.2
v -1 0.3 -0.2
v -0.9 0.3 -0.2
v 0.9 0.3 -0.2
v 1 0.3 -0.2
v -1 0.3 -0.8
v -0.9 0.3 -0.8
v 0.9 0.3 -0.8
v 1 0.3 -0.8
v -1 0.3 -1.2
v -0.9 0.3 -1.2
v 0.9 0.3 -1.2
v 1 0.3 -1.2
v -0.9 0.3 -1.9
v -0.5 0.3 -1.9
v -0.2 0.3 -1.9
v 0.2 0.3 -1.9
v 0.5 0.3 -1.9
v 0.9 0.3 -1.9
v -1 0.3 -2
v -0.9 0.3 -2
v -0.5 0.3 -2
v -0.2 0.3 -2
v 0.2 0.3 -2
v 0.5 0.3 -2
v 0.9 0.3 -2
v 1 0.3 -2
v -1 0.5 2
v -0.9 0.5 2
v 0.9 0.5 2
v 1 0.5 2
v -0.9 0.5 1.9
v 0.9 0.5 1.9
v 1 0.5 1.9
v -0.9 0.5 1
v 0.9 0.5 1
v -0.9 0.5 0.9
v 0.9 0.5 0.9
v -0.9 0.5 0.0999999
v 0.9 0.5 0.0999999
v -0.9 0.5 -2.38419e-007
v 0.9 0.5 -2.38419e-007
v -1 0.5 -2
v -0.9 0.5 -2
v 0.9 0.5 -2
v 1 0.5 -2
v -0.9 1 2
v 0.9 1 2
v -0.9 1 1.7
v 0.9 1 1.7
v -0.9 1.1 1.7
v 0.9 1.1 1.7
v -0.9 1.1 1
v -0.8 1.1 1
v 0.8 1.1 1
v 0.9 1.1 1
v -0.9 2 1
v 0.9 2 1
v -0.8 2 0.9
v 0.8 2 0.9
v -0.8 2 0.0999999
v 0.8 2 0.0999999
v -0.9 2 -2.38419e-007
v 0.9 2 -2.38419e-007
v -0.9 2 -2
v 0.9 2 -2

# faces
f 9/8/1 2/8/1 1/8/1
f 10/8/1 2/8/1 9/8/1
f 11/8/1 4/8/1 3/8/1
f 12/8/1 4/8/1 11/8/1
f 13/8/1 6/8/1 5/8/1
f 14/8/1 6/8/1 13/8/1
f 16/7/1 8/7/1 7/7/1
f 17/6/1 9/6/1 8/6/1
f 17/7/1 8/7/1 16/7/1
f 18/8/1 10/8/1 9/8/1
f 18/6/1 9/6/1 17/6/1
f 19/6/1 11/6/1 10/6/1
f 19/8/1 10/8/1 18/8/1
f 20/8/1 12/8/1 11/8/1
f 20/6/1 11/6/1 19/6/1
f 21/6/1 13/6/1 12/6/1
f 21/8/1 12/8/1 20/8/1
f 22/8/1 14/8/1 13/8/1
f 22/6/1 13/6/1 21/6/1
f 23/6/1 15/6/1 14/6/1
f 23/8/1 14/8/1 22/8/1
f 24/6/1 22/6/1 21/6/1
f 24/6/1 17/6/1 16/6/1
f 24/6/1 23/6/1 22/6/1
f 24/6/1 21/6/1 20/6/1
f 24/6/1 20/6/1 19/6/1
f 24/6/1 19/6/1 18/6/1
f 24/6/1 18/6/1 17/6/1
f 25/6/1 15/6/1 23/6/1
f 25/6/1 23/6/1 24/6/1
f 33/1/1 27/1/1 26/1/1
f 34/2/1 28/2/1 27/2/1
f 34/1/1 27/1/1 33/1/1
f 35/2/1 30/2/1 29/2/1
f 36/8/1 31/8/1 30/8/1
f 36/2/1 30/2/1 35/2/1
f 37/2/1 32/2/1 31/2/1
f 38/2/1 32/2/1 37/2/1
f 39/2/1 32/2/1 38/2/1
f 40/2/1 32/2/1 39/2/1
f 41/2/1 34/2/1 33/2/1
f 42/2/1 28/2/1 34/2/1
f 42/2/1 34/2/1 41/2/1
f 43/2/1 35/2/1 29/2/1
f 43/8/1 36/8/1 35/8/1
f 44/8/1 31/8/1 36/8/1
f 44/8/1 36/8/1 43/8/1
f 45/3/1 38/3/1 37/3/1
f 46/3/1 38/3/1 45/3/1
f 47/2/1 39/2/1 38/2/1
f 47/3/1 40/3/1 39/3/1
f 48/3/1 40/3/1 47/3/1
f 49/2/1 28/2/1 42/2/1
f 50/8/1 29/8/1 28/8/1
f 50/2/1 28/2/1 49/2/1
f 51/2/1 43/2/1 29/2/1
f 51/8/1 29/8/1 50/8/1
f 51/2/1 44/2/1 43/2/1
f 52/8/1 31/8/1 44/8/1
f 52/2/1 44/2/1 51/2/1
f 53/8/1 51/8/1 50/8/1
f 53/8/1 52/8/1 51/8/1
f 54/8/1 31/8/1 52/8/1
f 54/8/1 52/8/1 53/8/1
f 55/3/1 45/3/1 37/3/1
f 55/2/1 46/2/1 45/2/1
f 56/2/1 46/2/1 55/2/1
f 57/2/1 37/2/1 31/2/1
f 57/3/1 55/3/1 37/3/1
f 57/3/1 56/3/1 55/3/1
f 58/2/1 46/2/1 56/2/1
f 58/3/1 56/3/1 57/3/1
f 59/2/1 57/2/1 31/2/1
f 59/2/1 58/2/1 57/2/1
f 60/2/1 58/2/1 59/2/1
f 61/3/1 60/3/1 59/3/1
f 61/2/1 58/2/1 60/2/1
f 62/2/1 46/2/1 58/2/1
f 62/2/1 58/2/1 61/2/1
f 62/3/1 38/3/1 46/3/1
f 63/2/1 48/2/1 47/2/1
f 63/2/1 47/2/1 38/2/1
f 64/3/1 40/3/1 48/3/1
f 64/2/1 48/2/1 63/2/1
f 65/3/1 61/3/1 59/3/1
f 65/2/1 59/2/1 31/2/1
f 65/3/1 62/3/1 61/3/1
f 66/2/1 63/2/1 38/2/1
f 66/3/1 62/3/1 65/3/1
f 66/3/1 38/3/1 62/3/1
f 67/3/1 64/3/1 63/3/1
f 67/2/1 63/2/1 66/2/1
f 68/2/1 32/2/1 40/2/1
f 68/3/1 64/3/1 67/3/1
f 68/3/1 40/3/1 64/3/1
f 69/8/1 53/8/1 50/8/1
f 69/4/1 54/4/1 53/4/1
f 70/8/1 31/8/1 54/8/1
f 70/4/1 54/4/1 69/4/1
f 71/8/1 69/8/1 50/8/1
f 71/8/1 70/8/1 69/8/1
f 72/2/1 65/2/1 31/2/1
f 72/8/1 70/8/1 71/8/1
f 72/2/1 67/2/1 66/2/1
f 72/8/1 31/8/1 70/8/1
f 72/2/1 66/2/1 65/2/1
f 72/2/1 68/2/1 67/2/1
f 73/2/1 32/2/1 68/2/1
f 73/2/1 68/2/1 72/2/1
f 80/8/1 75/8/1 74/8/1
f 81/8/1 75/8/1 80/8/1
f 82/8/1 77/8/1 76/8/1
f 83/8/1 77/8/1 82/8/1
f 84/8/1 79/8/1 78/8/1
f 85/8/1 79/8/1 84/8/1
f 86/8/2 87/8/2 92/8/2
f 92/8/2 87/8/2 93/8/2
f 88/8/2 89/8/2 94/8/2
f 94/8/2 89/8/2 95/8/2
f 90/8/2 91/8/2 96/8/2
f 96/8/2 91/8/2 97/8/2
f 98/1/2 99/1/2 105/1/2
f 99/2/2 100/2/2 106/2/2
f 105/1/2 99/1/2 106/1/2
f 101/2/2 102/2/2 107/2/2
f 102/8/2 103/8/2 108/8/2
f 107/2/2 102/2/2 108/2/2
f 103/2/2 104/2/2 109/2/2
f 109/2/2 104/2/2 110/2/2
f 110/2/2 104/2/2 111/2/2
f 111/2/2 104/2/2 112/2/2
f 105/2/2 106/2/2 113/2/2
f 106/2/2 100/2/2 114/2/2
f 113/2/2 106/2/2 114/2/2
f 101/2/2 107/2/2 115/2/2
f 107/8/2 108/8/2 115/8/2
f 108/8/2 103/8/2 116/8/2
f 115/8/2 108/8/2 116/8/2
f 109/3/2 110/3/2 117/3/2
f 110/2/2 111/2/2 118/2/2
f 117/3/2 110/3/2 118/3/2
f 111/3/2 112/3/2 119/3/2
f 119/3/2 112/3/2 120/3/2
f 114/2/2 100/2/2 121/2/2
f 100/8/2 101/8/2 122/8/2
f 121/2/2 100/2/2 122/2/2
f 101/2/2 115/2/2 123/2/2
f 122/8/2 101/8/2 123/8/2
f 115/2/2 116/2/2 123/2/2
f 116/8/2 103/8/2 124/8/2
f 123/2/2 116/2/2 124/2/2
f 122/8/2 123/8/2 125/8/2
f 123/8/2 124/8/2 125/8/2
f 124/8/2 103/8/2 126/8/2
f 125/8/2 124/8/2 126/8/2
f 119/2/2 120/2/2 127/2/2
f 120/3/2 112/3/2 128/3/2
f 127/2/2 120/2/2 128/2/2
f 119/2/2 127/2/2 129/2/2
f 127/3/2 128/3/2 129/3/2
f 128/3/2 112/3/2 130/3/2
f 129/3/2 128/3/2 130/3/2
f 112/2/2 104/2/2 130/2/2
f 129/2/2 130/2/2 131/2/2
f 130/2/2 104/2/2 132/2/2
f 131/2/2 130/2/2 132/2/2
f 117/2/2 118/2/2 133/2/2
f 109/3/2 117/3/2 133/3/2
f 118/2/2 111/2/2 134/2/2
f 133/2/2 118/2/2 134/2/2
f 119/2/2 129/2/2 135/2/2
f 111/3/2 119/3/2 135/3/2
f 129/2/2 131/2/2 135/2/2
f 131/3/2 132/3/2 136/3/2
f 135/2/2 131/2/2 136/2/2
f 103/2/2 109/2/2 137/2/2
f 109/3/2 133/3/2 137/3/2
f 133/3/2 134/3/2 137/3/2
f 134/2/2 111/2/2 138/2/2
f 137/3/2 134/3/2 138/3/2
f 111/3/2 135/3/2 139/3/2
f 138/2/2 111/2/2 139/2/2
f 135/3/2 136/3/2 139/3/2
f 136/3/2 132/3/2 140/3/2
f 139/3/2 136/3/2 140/3/2
f 132/2/2 104/2/2 140/2/2
f 122/8/2 125/8/2 141/8/2
f 125/4/2 126/4/2 141/4/2
f 126/8/2 103/8/2 142/8/2
f 141/4/2 126/4/2 142/4/2
f 122/8/2 141/8/2 143/8/2
f 141/8/2 142/8/2 143/8/2
f 103/2/2 137/2/2 144/2/2
f 143/8/2 142/8/2 144/8/2
f 139/2/2 140/2/2 144/2/2
f 137/2/2 138/2/2 144/2/2
f 138/2/2 139/2/2 144/2/2
f 142/8/2 103/8/2 144/8/2
f 140/2/2 104/2/2 145/2/2
f 144/2/2 140/2/2 145/2/2
f 146/8/2 147/8/2 154/8/2
f 154/8/2 147/8/2 155/8/2
f 148/8/2 149/8/2 156/8/2
f 156/8/2 149/8/2 157/8/2
f 150/8/2 151/8/2 158/8/2
f 158/8/2 151/8/2 159/8/2
f 154/8/2 155/8/2 161/8/2
f 153/6/2 154/6/2 161/6/2
f 155/6/2 156/6/2 162/6/2
f 161/8/2 155/8/2 162/8/2
f 156/8/2 157/8/2 163/8/2
f 162/6/2 156/6/2 163/6/2
f 157/6/2 158/6/2 164/6/2
f 163/8/2 157/8/2 164/8/2
f 158/8/2 159/8/2 165/8/2
f 164/6/2 158/6/2 165/6/2
f 159/6/2 160/6/2 166/6/2
f 165/8/2 159/8/2 166/8/2
f 152/2/2 153/2/2 167/2/2
f 164/6/2 165/6/2 168/6/2
f 167/2/2 153/2/2 168/2/2
f 161/6/2 162/6/2 168/6/2
f 165/6/2 166/6/2 168/6/2
f 162/6/2 163/6/2 168/6/2
f 163/6/2 164/6/2 168/6/2
f 153/6/2 161/6/2 168/6/2
f 166/6/2 160/6/2 169/6/2
f 168/6/2 166/6/2 169/6/2
f 173/7/3 171/7/3 170/7/3
f 174/6/3 172/6/3 171/6/3
f 174/7/3 171/7/3 173/7/3
f 175/6/3 172/6/3 174/6/3
f 178/1/3 174/1/3 173/1/3
f 178/1/3 175/1/3 174/1/3
f 178/1/3 176/1/3 175/1/3
f 179/2/3 177/2/3 176/2/3
f 179/1/3 176/1/3 178/1/3
f 180/2/3 179/2/3 178/2/3
f 181/2/3 179/2/3 180/2/3
f 182/5/3 181/5/3 180/5/3
f 183/2/3 179/2/3 181/2/3
f 183/5/3 181/5/3 182/5/3
f 184/2/3 183/2/3 182/2/3
f 185/2/3 177/2/3 179/2/3
f 185/2/3 183/2/3 184/2/3
f 185/2/3 179/2/3 183/2/3
f 186/1/3 185/1/3 184/1/3
f 187/1/3 185/1/3 186/1/3
f 188/2/3 177/2/3 185/2/3
f 188/1/3 185/1/3 187/1/3
f 189/2/3 177/2/3 188/2/3
f 190/2/3 187/2/3 186/2/3
f 191/2/3 187/2/3 190/2/3
f 194/2/3 193/2/3 192/2/3
f 195/2/3 193/2/3 194/2/3
f 198/8/3 197/8/3 196/8/3
f 199/8/3 197/8/3 198/8/3
f 202/8/3 201/8/3 200/8/3
f 203/8/3 201/8/3 202/8/3
f 206/8/3 205/8/3 204/8/3
f 207/8/3 205/8/3 206/8/3
f 208/4/3 207/4/3 206/4/3
f 209/8/3 205/8/3 207/8/3
f 209/4/3 207/4/3 208/4/3
f 210/8/3 209/8/3 208/8/3
f 211/8/3 205/8/3 209/8/3
f 211/8/3 209/8/3 210/8/3
f 214/8/3 213/8/3 212/8/3
f 215/8/3 213/8/3 214/8/3
f 218/8/3 217/8/3 216/8/3
f 219/8/3 217/8/3 218/8/3
f 222/8/3 221/8/3 220/8/3
f 223/8/3 221/8/3 222/8/3
f 226/8/3 225/8/3 224/8/3
f 227/8/3 225/8/3 226/8/3
f 228/8/4 229/8/4 230/8/4
f 230/8/4 229/8/4 231/8/4
f 232/8/4 233/8/4 234/8/4
f 234/8/4 233/8/4 235/8/4
f 236/8/4 237/8/4 238/8/4
f 238/8/4 237/8/4 239/8/4
f 240/8/4 241/8/4 242/8/4
f 242/8/4 241/8/4 243/8/4
f 244/8/4 245/8/4 246/8/4
f 246/8/4 245/8/4 247/8/4
f 248/8/4 249/8/4 250/8/4
f 250/8/4 249/8/4 251/8/4
f 252/6/4 253/6/4 254/6/4
f 254/6/4 253/6/4 255/6/4
f 254/1/4 255/1/4 257/1/4
f 255/2/4 256/2/4 257/2/4
f 257/2/4 256/2/4 258/2/4
f 258/2/4 256/2/4 259/2/4
f 254/1/4 257/1/4 260/1/4
f 260/1/4 257/1/4 261/1/4
f 257/7/4 258/7/4 262/7/4
f 261/1/4 257/1/4 262/1/4
f 258/6/4 259/6/4 263/6/4
f 263/6/4 259/6/4 264/6/4
f 260/7/4 261/7/4 265/7/4
f 261/6/4 262/6/4 266/6/4
f 265/7/4 261/7/4 266/7/4
f 262/7/4 258/7/4 267/7/4
f 258/6/4 263/6/4 267/6/4
f 263/7/4 264/7/4 268/7/4
f 267/6/4 263/6/4 268/6/4
f 264/6/4 259/6/4 269/6/4
f 268/7/4 264/7/4 269/7/4
f 259/2/4 256/2/4 270/2/4
f 269/6/4 259/6/4 270/6/4
f 268/7/4 269/7/4 271/7/4
f 267/7/4 268/7/4 271/7/4
f 269/7/4 270/7/4 271/7/4
f 262/7/4 267/7/4 271/7/4
f 271/7/4 270/7/4 272/7/4
f 272/7/4 270/7/4 273/7/4
f 270/2/4 256/2/4 274/2/4
f 273/7/4 270/7/4 274/7/4
f 265/6/4 266/6/4 275/6/4
f 266/6/4 262/6/4 276/6/4
f 275/6/4 266/6/4 276/6/4
f 272/7/4 273/7/4 277/7/4
f 271/6/4 272/6/4 277/6/4
f 273/6/4 274/6/4 278/6/4
f 277/7/4 273/7/4 278/7/4
f 275/7/4 276/7/4 279/7/4
f 276/6/4 262/6/4 280/6/4
f 279/7/4 276/7/4 280/7/4
f 262/7/4 271/7/4 281/7/4
f 280/6/4 262/6/4 281/6/4
f 279/1/4 280/1/4 282/1/4
f 281/7/4 271/7/4 282/7/4
f 280/1/4 281/1/4 282/1/4
f 277/6/4 278/6/4 283/6/4
f 282/7/4 271/7/4 283/7/4
f 271/6/4 277/6/4 283/6/4
f 274/2/4 256/2/4 284/2/4
f 283/6/4 278/6/4 284/6/4
f 278/6/4 274/6/4 284/6/4
f 279/1/4 282/1/4 285/1/4
f 282/2/4 283/2/4 286/2/4
f 285/1/4 282/1/4 286/1/4
f 283/2/4 284/2/4 286/2/4
f 284/2/4 256/2/4 287/2/4
f 286/2/4 284/2/4 287/2/4
f 285/6/4 286/6/4 288/6/4
f 288/6/4 286/6/4 289/6/4
f 294/8/5 291/8/5 290/8/5
f 295/8/5 291/8/5 294/8/5
f 296/8/5 293/8/5 292/8/5
f 297/8/5 293/8/5 296/8/5
f 302/8/5 299/8/5 298/8/5
f 303/8/5 299/8/5 302/8/5
f 304/8/5 301/8/5 300/8/5
f 305/8/5 301/8/5 304/8/5
f 310/8/5 307/8/5 306/8/5
f 311/8/5 307/8/5 310/8/5
f 312/8/5 309/8/5 308/8/5
f 313/8/5 309/8/5 312/8/5
f 322/7/5 315/7/5 314/7/5
f 323/1/5 316/1/5 315/1/5
f 323/7/5 315/7/5 322/7/5
f 324/2/5 317/2/5 316/2/5
f 324/1/5 316/1/5 323/1/5
f 325/5/5 318/5/5 317/5/5
f 325/2/5 317/2/5 324/2/5
f 326/2/5 319/2/5 318/2/5
f 326/5/5 318/5/5 325/5/5
f 327/1/5 320/1/5 319/1/5
f 327/2/5 319/2/5 326/2/5
f 328/2/5 321/2/5 320/2/5
f 328/1/5 320/1/5 327/1/5
f 329/2/5 321/2/5 328/2/5
f 330/6/5 323/6/5 322/6/5
f 331/7/5 327/7/5 326/7/5
f 331/6/5 323/6/5 330/6/5
f 331/7/5 324/7/5 323/7/5
f 331/7/5 325/7/5 324/7/5
f 331/7/5 328/7/5 327/7/5
f 331/7/5 326/7/5 325/7/5
f 332/6/5 329/6/5 328/6/5
f 332/7/5 328/7/5 331/7/5
f 333/6/5 329/6/5 332/6/5
f 335/7/5 332/7/5 331/7/5
f 336/7/5 332/7/5 335/7/5
f 338/6/5 335/6/5 334/6/5
f 339/7/5 336/7/5 335/7/5
f 339/6/5 335/6/5 338/6/5
f 340/6/5 337/6/5 336/6/5
f 340/7/5 336/7/5 339/7/5
f 341/6/5 337/6/5 340/6/5
f 343/7/5 340/7/5 339/7/5
f 344/7/5 340/7/5 343/7/5
f 346/6/5 343/6/5 342/6/5
f 347/7/5 344/7/5 343/7/5
f 347/6/5 343/6/5 346/6/5
f 348/6/5 345/6/5 344/6/5
f 348/7/5 344/7/5 347/7/5
f 349/6/5 345/6/5 348/6/5
f 351/7/5 348/7/5 347/7/5
f 352/7/5 348/7/5 351/7/5
f 354/6/5 351/6/5 350/6/5
f 354/7/5 352/7/5 351/7/5
f 355/7/5 352/7/5 354/7/5
f 356/7/5 352/7/5 355/7/5
f 357/7/5 352/7/5 356/7/5
f 358/7/5 352/7/5 357/7/5
f 359/6/5 353/6/5 352/6/5
f 359/7/5 352/7/5 358/7/5
f 360/6/5 354/6/5 350/6/5
f 361/1/5 355/1/5 354/1/5
f 361/6/5 354/6/5 360/6/5
f 362/7/5 356/7/5 355/7/5
f 362/1/5 355/1/5 361/1/5
f 363/6/5 357/6/5 356/6/5
f 363/7/5 356/7/5 362/7/5
f 364/7/5 358/7/5 357/7/5
f 364/6/5 357/6/5 363/6/5
f 365/1/5 359/1/5 358/1/5
f 365/7/5 358/7/5 364/7/5
f 366/6/5 353/6/5 359/6/5
f 366/1/5 359/1/5 365/1/5
f 367/6/5 353/6/5 366/6/5
f 368/6/6 369/6/6 372/6/6
f 370/2/6 371/2/6 373/2/6
f 373/2/6 371/2/6 374/2/6
f 368/6/6 372/6/6 375/6/6
f 373/6/6 374/6/6 376/6/6
f 368/6/6 375/6/6 377/6/6
f 376/6/6 374/6/6 378/6/6
f 368/6/6 377/6/6 379/6/6
f 378/6/6 374/6/6 380/6/6
f 368/6/6 379/6/6 381/6/6
f 380/6/6 374/6/6 382/6/6
f 368/6/6 381/6/6 383/6/6
f 383/6/6 381/6/6 384/6/6
f 382/6/6 374/6/6 385/6/6
f 385/6/6 374/6/6 386/6/6
f 387/2/6 388/2/6 389/2/6
f 389/2/6 388/2/6 390/2/6
f 391/2/6 392/2/6 393/2/6
f 393/2/6 392/2/6 394/2/6
f 394/2/6 392/2/6 395/2/6
f 395/2/6 392/2/6 396/2/6
f 397/8/6 398/8/6 399/8/6
f 399/8/6 398/8/6 400/8/6
f 397/8/6 399/8/6 401/8/6
f 399/2/6 400/2/6 401/2/6
f 400/8/6 398/8/6 402/8/6
f 401/2/6 400/2/6 402/2/6
f 397/8/6 401/8/6 403/8/6
f 401/8/6 402/8/6 403/8/6
f 402/8/6 398/8/6 404/8/6
f 403/8/6 402/8/6 404/8/6
f 403/2/6 404/2/6 405/2/6
f 405/2/6 404/2/6 406/2/6
