# MagicaVoxel @ Ephtracy

# group
o 

# material
mtllib van.mtl
usemtl palette

# normals
vn -1 0 0
vn 1 0 0
vn 0 0 1
vn 0 0 -1
vn 0 -1 0
vn 0 1 0

# texcoords
vt 0.181641 0.5
vt 0.841797 0.5
vt 0.876953 0.5
vt 0.923828 0.5
vt 0.958984 0.5
vt 0.962891 0.5
vt 0.990234 0.5

# verts
v -1 0.1 0.4
v -1 0.1 -0.4
v -1 0.2 0.3
v -1 0.2 0.1
v -1 0.2 -0.1
v -1 0.2 -0.3
v -1 0.3 0.3
v -1 0.3 0.1
v -1 0.3 -0.1
v -1 0.3 -0.3
v -1 0.9 0.3
v -1 0.9 -0.3
v -1 1 0.4
v -1 1 -0.4
v -0.8 0 0.5
v -0.8 0 0.4
v -0.8 0 -0.4
v -0.8 0 -0.5
v -0.8 0.1 0.4
v -0.8 0.1 -0.4
v -0.8 0.2 0.4
v -0.8 0.2 -0.4
v -0.8 0.3 0.5
v -0.8 0.3 0.4
v -0.8 0.3 -0.4
v -0.8 0.3 -0.5
v 0.5 0 0.5
v 0.5 0 0.4
v 0.5 0 -0.4
v 0.5 0 -0.5
v 0.5 0.1 0.4
v 0.5 0.1 -0.4
v 0.5 0.3 0.5
v 0.5 0.3 0.4
v 0.5 0.3 -0.4
v 0.5 0.3 -0.5
v -0.5 0 0.5
v -0.5 0 0.4
v -0.5 0 -0.4
v -0.5 0 -0.5
v -0.5 0.1 0.4
v -0.5 0.1 -0.4
v -0.5 0.2 0.4
v -0.5 0.2 -0.4
v -0.5 0.3 0.5
v -0.5 0.3 0.4
v -0.5 0.3 -0.4
v -0.5 0.3 -0.5
v 0.7 0.5 0.4
v 0.7 0.5 -0.4
v 0.7 0.6 0.3
v 0.7 0.6 -0.3
v 0.7 0.9 0.3
v 0.7 0.9 -0.3
v 0.7 1 0.4
v 0.7 1 -0.4
v 0.8 0 0.5
v 0.8 0 0.4
v 0.8 0 -0.4
v 0.8 0 -0.5
v 0.8 0.1 0.4
v 0.8 0.1 -0.4
v 0.8 0.2 0.4
v 0.8 0.2 -0.4
v 0.8 0.3 0.5
v 0.8 0.3 0.4
v 0.8 0.3 -0.4
v 0.8 0.3 -0.5
v 1 0.1 0.4
v 1 0.1 -0.4
v 1 0.2 0.3
v 1 0.2 0.1
v 1 0.2 -0.1
v 1 0.2 -0.3
v 1 0.3 0.3
v 1 0.3 0.1
v 1 0.3 -0.1
v 1 0.3 -0.3
v 1 0.4 0.3
v 1 0.4 -0.3
v 1 0.5 0.4
v 1 0.5 -0.4
v -0.8 0 0.5
v -0.8 0.3 0.5
v -0.5 0 0.5
v -0.5 0.3 0.5
v 0.5 0 0.5
v 0.5 0.3 0.5
v 0.8 0 0.5
v 0.8 0.3 0.5
v -1 0.1 0.4
v -1 1 0.4
v -0.9 0.2 0.4
v -0.9 0.9 0.4
v -0.8 0.1 0.4
v -0.8 0.2 0.4
v -0.8 0.3 0.4
v -0.5 0.1 0.4
v -0.5 0.2 0.4
v -0.5 0.3 0.4
v -0.2 0.2 0.4
v -0.2 0.9 0.4
v -0.1 0.2 0.4
v -0.1 0.4 0.4
v -0.1 0.5 0.4
v -0.1 0.9 0.4
v 0.4 0.2 0.4
v 0.4 0.4 0.4
v 0.5 0.1 0.4
v 0.5 0.3 0.4
v 0.5 0.4 0.4
v 0.6 0.5 0.4
v 0.6 0.9 0.4
v 0.7 0.5 0.4
v 0.7 1 0.4
v 0.8 0.1 0.4
v 0.8 0.2 0.4
v 0.8 0.3 0.4
v 0.9 0.2 0.4
v 0.9 0.4 0.4
v 1 0.1 0.4
v 1 0.5 0.4
v -0.8 0 -0.4
v -0.8 0.1 -0.4
v -0.7 0.1 -0.4
v -0.5 0 -0.4
v -0.5 0.1 -0.4
v 0.5 0 -0.4
v 0.5 0.1 -0.4
v 0.8 0 -0.4
v 0.8 0.1 -0.4
v -0.8 0 0.4
v -0.8 0.1 0.4
v -0.5 0 0.4
v -0.5 0.1 0.4
v 0.5 0 0.4
v 0.5 0.1 0.4
v 0.8 0 0.4
v 0.8 0.1 0.4
v -1 0.1 -0.4
v -1 1 -0.4
v -0.9 0.2 -0.4
v -0.9 0.9 -0.4
v -0.8 0.1 -0.4
v -0.8 0.2 -0.4
v -0.8 0.3 -0.4
v -0.5 0.1 -0.4
v -0.5 0.2 -0.4
v -0.5 0.3 -0.4
v -0.2 0.2 -0.4
v -0.2 0.9 -0.4
v -0.1 0.2 -0.4
v -0.1 0.4 -0.4
v -0.1 0.5 -0.4
v -0.1 0.9 -0.4
v 0.4 0.2 -0.4
v 0.4 0.4 -0.4
v 0.4 0.5 -0.4
v 0.4 0.9 -0.4
v 0.5 0.1 -0.4
v 0.5 0.3 -0.4
v 0.5 0.4 -0.4
v 0.5 0.5 -0.4
v 0.5 0.9 -0.4
v 0.7 0.5 -0.4
v 0.7 1 -0.4
v 0.8 0.1 -0.4
v 0.8 0.2 -0.4
v 0.8 0.3 -0.4
v 0.9 0.2 -0.4
v 0.9 0.4 -0.4
v 1 0.1 -0.4
v 1 0.5 -0.4
v -0.8 0 -0.5
v -0.8 0.3 -0.5
v -0.5 0 -0.5
v -0.5 0.3 -0.5
v 0.5 0 -0.5
v 0.5 0.3 -0.5
v 0.8 0 -0.5
v 0.8 0.3 -0.5
v -0.8 0 0.5
v -0.5 0 0.5
v 0.5 0 0.5
v 0.8 0 0.5
v -0.8 0 0.4
v -0.5 0 0.4
v 0.5 0 0.4
v 0.8 0 0.4
v -0.8 0 -0.4
v -0.5 0 -0.4
v 0.5 0 -0.4
v 0.8 0 -0.4
v -0.8 0 -0.5
v -0.5 0 -0.5
v 0.5 0 -0.5
v 0.8 0 -0.5
v -1 0.1 0.4
v -0.8 0.1 0.4
v -0.5 0.1 0.4
v 0.5 0.1 0.4
v 0.8 0.1 0.4
v 1 0.1 0.4
v -0.9 0.1 0.3
v -0.8 0.1 0.3
v -0.5 0.1 0.3
v 0.5 0.1 0.3
v 0.8 0.1 0.3
v 0.9 0.1 0.3
v -0.9 0.1 -0.3
v -0.7 0.1 -0.3
v -0.5 0.1 -0.3
v 0.5 0.1 -0.3
v 0.8 0.1 -0.3
v 0.9 0.1 -0.3
v -1 0.1 -0.4
v -0.8 0.1 -0.4
v -0.7 0.1 -0.4
v -0.5 0.1 -0.4
v 0.5 0.1 -0.4
v 0.8 0.1 -0.4
v 1 0.1 -0.4
v -0.8 0.3 0.5
v -0.5 0.3 0.5
v 0.5 0.3 0.5
v 0.8 0.3 0.5
v -0.8 0.3 0.4
v -0.5 0.3 0.4
v 0.5 0.3 0.4
v 0.8 0.3 0.4
v -0.8 0.3 -0.4
v -0.5 0.3 -0.4
v 0.5 0.3 -0.4
v 0.8 0.3 -0.4
v -0.8 0.3 -0.5
v -0.5 0.3 -0.5
v 0.5 0.3 -0.5
v 0.8 0.3 -0.5
v 0.7 0.5 0.4
v 1 0.5 0.4
v 0.8 0.5 0.3
v 0.9 0.5 0.3
v 0.8 0.5 -0.3
v 0.9 0.5 -0.3
v 0.7 0.5 -0.4
v 1 0.5 -0.4
v -1 1 0.4
v 0.7 1 0.4
v -0.9 1 0.3
v 0.6 1 0.3
v -0.9 1 -0.3
v 0.6 1 -0.3
v -1 1 -0.4
v 0.7 1 -0.4

# faces
f 3/7/1 2/7/1 1/7/1
f 4/7/1 2/7/1 3/7/1
f 5/7/1 2/7/1 4/7/1
f 6/7/1 2/7/1 5/7/1
f 7/7/1 3/7/1 1/7/1
f 7/2/1 4/2/1 3/2/1
f 8/4/1 5/4/1 4/4/1
f 8/2/1 4/2/1 7/2/1
f 9/2/1 6/2/1 5/2/1
f 9/4/1 5/4/1 8/4/1
f 10/7/1 2/7/1 6/7/1
f 10/2/1 6/2/1 9/2/1
f 11/4/1 9/4/1 8/4/1
f 11/4/1 8/4/1 7/4/1
f 11/4/1 10/4/1 9/4/1
f 11/7/1 7/7/1 1/7/1
f 12/7/1 2/7/1 10/7/1
f 12/4/1 10/4/1 11/4/1
f 13/7/1 11/7/1 1/7/1
f 13/7/1 12/7/1 11/7/1
f 14/7/1 2/7/1 12/7/1
f 14/7/1 12/7/1 13/7/1
f 19/3/1 16/3/1 15/3/1
f 20/3/1 18/3/1 17/3/1
f 21/3/1 19/3/1 15/3/1
f 22/3/1 18/3/1 20/3/1
f 23/3/1 21/3/1 15/3/1
f 24/3/1 21/3/1 23/3/1
f 25/3/1 18/3/1 22/3/1
f 26/3/1 18/3/1 25/3/1
f 31/3/1 28/3/1 27/3/1
f 32/3/1 30/3/1 29/3/1
f 33/3/1 31/3/1 27/3/1
f 34/3/1 31/3/1 33/3/1
f 35/3/1 30/3/1 32/3/1
f 36/3/1 30/3/1 35/3/1
f 37/3/2 38/3/2 41/3/2
f 39/3/2 40/3/2 42/3/2
f 37/3/2 41/3/2 43/3/2
f 42/3/2 40/3/2 44/3/2
f 37/3/2 43/3/2 45/3/2
f 45/3/2 43/3/2 46/3/2
f 44/3/2 40/3/2 47/3/2
f 47/3/2 40/3/2 48/3/2
f 49/7/2 50/7/2 51/7/2
f 51/7/2 50/7/2 52/7/2
f 49/7/2 51/7/2 53/7/2
f 51/5/2 52/5/2 53/5/2
f 52/7/2 50/7/2 54/7/2
f 53/5/2 52/5/2 54/5/2
f 49/7/2 53/7/2 55/7/2
f 53/7/2 54/7/2 55/7/2
f 54/7/2 50/7/2 56/7/2
f 55/7/2 54/7/2 56/7/2
f 57/3/2 58/3/2 61/3/2
f 59/3/2 60/3/2 62/3/2
f 57/3/2 61/3/2 63/3/2
f 62/3/2 60/3/2 64/3/2
f 57/3/2 63/3/2 65/3/2
f 65/3/2 63/3/2 66/3/2
f 64/3/2 60/3/2 67/3/2
f 67/3/2 60/3/2 68/3/2
f 69/7/2 70/7/2 71/7/2
f 71/7/2 70/7/2 72/7/2
f 72/7/2 70/7/2 73/7/2
f 73/7/2 70/7/2 74/7/2
f 69/7/2 71/7/2 75/7/2
f 71/1/2 72/1/2 75/1/2
f 72/4/2 73/4/2 76/4/2
f 75/1/2 72/1/2 76/1/2
f 73/1/2 74/1/2 77/1/2
f 76/4/2 73/4/2 77/4/2
f 74/7/2 70/7/2 78/7/2
f 77/1/2 74/1/2 78/1/2
f 76/4/2 77/4/2 79/4/2
f 75/4/2 76/4/2 79/4/2
f 77/4/2 78/4/2 79/4/2
f 69/7/2 75/7/2 79/7/2
f 78/7/2 70/7/2 80/7/2
f 79/4/2 78/4/2 80/4/2
f 69/7/2 79/7/2 81/7/2
f 79/7/2 80/7/2 81/7/2
f 80/7/2 70/7/2 82/7/2
f 81/7/2 80/7/2 82/7/2
f 85/3/3 84/3/3 83/3/3
f 86/3/3 84/3/3 85/3/3
f 89/3/3 88/3/3 87/3/3
f 90/3/3 88/3/3 89/3/3
f 93/7/3 92/7/3 91/7/3
f 94/7/3 92/7/3 93/7/3
f 95/7/3 93/7/3 91/7/3
f 96/4/3 94/4/3 93/4/3
f 96/7/3 93/7/3 95/7/3
f 97/4/3 94/4/3 96/4/3
f 100/4/3 94/4/3 97/4/3
f 101/7/3 99/7/3 98/7/3
f 101/4/3 100/4/3 99/4/3
f 102/7/3 92/7/3 94/7/3
f 102/4/3 100/4/3 101/4/3
f 102/4/3 94/4/3 100/4/3
f 103/7/3 101/7/3 98/7/3
f 103/7/3 102/7/3 101/7/3
f 104/7/3 102/7/3 103/7/3
f 105/7/3 102/7/3 104/7/3
f 106/7/3 92/7/3 102/7/3
f 106/7/3 102/7/3 105/7/3
f 107/7/3 103/7/3 98/7/3
f 107/4/3 104/4/3 103/4/3
f 108/7/3 105/7/3 104/7/3
f 108/4/3 104/4/3 107/4/3
f 109/7/3 107/7/3 98/7/3
f 109/7/3 108/7/3 107/7/3
f 110/7/3 108/7/3 109/7/3
f 111/7/3 105/7/3 108/7/3
f 111/7/3 108/7/3 110/7/3
f 112/7/3 105/7/3 111/7/3
f 112/5/3 106/5/3 105/5/3
f 113/7/3 92/7/3 106/7/3
f 113/5/3 106/5/3 112/5/3
f 114/7/3 112/7/3 111/7/3
f 114/7/3 113/7/3 112/7/3
f 115/7/3 92/7/3 113/7/3
f 115/7/3 113/7/3 114/7/3
f 118/4/3 111/4/3 110/4/3
f 119/7/3 117/7/3 116/7/3
f 119/4/3 118/4/3 117/4/3
f 120/4/3 111/4/3 118/4/3
f 120/4/3 118/4/3 119/4/3
f 120/7/3 114/7/3 111/7/3
f 121/7/3 119/7/3 116/7/3
f 121/7/3 120/7/3 119/7/3
f 122/7/3 114/7/3 120/7/3
f 122/7/3 120/7/3 121/7/3
f 125/3/3 124/3/3 123/3/3
f 126/3/3 125/3/3 123/3/3
f 127/3/3 125/3/3 126/3/3
f 130/3/3 129/3/3 128/3/3
f 131/3/3 129/3/3 130/3/3
f 132/3/4 133/3/4 134/3/4
f 134/3/4 133/3/4 135/3/4
f 136/3/4 137/3/4 138/3/4
f 138/3/4 137/3/4 139/3/4
f 140/7/4 141/7/4 142/7/4
f 142/7/4 141/7/4 143/7/4
f 140/7/4 142/7/4 144/7/4
f 142/4/4 143/4/4 145/4/4
f 144/7/4 142/7/4 145/7/4
f 145/4/4 143/4/4 146/4/4
f 146/4/4 143/4/4 149/4/4
f 147/7/4 148/7/4 150/7/4
f 148/4/4 149/4/4 150/4/4
f 143/7/4 141/7/4 151/7/4
f 150/4/4 149/4/4 151/4/4
f 149/4/4 143/4/4 151/4/4
f 147/7/4 150/7/4 152/7/4
f 150/7/4 151/7/4 152/7/4
f 152/7/4 151/7/4 153/7/4
f 153/7/4 151/7/4 154/7/4
f 151/7/4 141/7/4 155/7/4
f 154/7/4 151/7/4 155/7/4
f 147/7/4 152/7/4 156/7/4
f 152/4/4 153/4/4 156/4/4
f 153/7/4 154/7/4 157/7/4
f 156/4/4 153/4/4 157/4/4
f 154/6/4 155/6/4 158/6/4
f 157/7/4 154/7/4 158/7/4
f 155/7/4 141/7/4 159/7/4
f 158/6/4 155/6/4 159/6/4
f 147/7/4 156/7/4 160/7/4
f 157/7/4 158/7/4 160/7/4
f 156/7/4 157/7/4 160/7/4
f 160/7/4 158/7/4 161/7/4
f 161/7/4 158/7/4 162/7/4
f 158/5/4 159/5/4 163/5/4
f 162/7/4 158/7/4 163/7/4
f 159/7/4 141/7/4 164/7/4
f 163/5/4 159/5/4 164/5/4
f 162/7/4 163/7/4 165/7/4
f 163/7/4 164/7/4 165/7/4
f 164/7/4 141/7/4 166/7/4
f 165/7/4 164/7/4 166/7/4
f 161/4/4 162/4/4 169/4/4
f 167/7/4 168/7/4 170/7/4
f 168/4/4 169/4/4 170/4/4
f 162/7/4 165/7/4 171/7/4
f 170/4/4 169/4/4 171/4/4
f 169/4/4 162/4/4 171/4/4
f 167/7/4 170/7/4 172/7/4
f 170/7/4 171/7/4 172/7/4
f 171/7/4 165/7/4 173/7/4
f 172/7/4 171/7/4 173/7/4
f 174/3/4 175/3/4 176/3/4
f 176/3/4 175/3/4 177/3/4
f 178/3/4 179/3/4 180/3/4
f 180/3/4 179/3/4 181/3/4
f 186/3/5 183/3/5 182/3/5
f 187/3/5 183/3/5 186/3/5
f 188/3/5 185/3/5 184/3/5
f 189/3/5 185/3/5 188/3/5
f 194/3/5 191/3/5 190/3/5
f 195/3/5 191/3/5 194/3/5
f 196/3/5 193/3/5 192/3/5
f 197/3/5 193/3/5 196/3/5
f 204/7/5 199/7/5 198/7/5
f 205/4/5 200/4/5 199/4/5
f 205/7/5 199/7/5 204/7/5
f 206/7/5 201/7/5 200/7/5
f 206/4/5 200/4/5 205/4/5
f 207/4/5 202/4/5 201/4/5
f 207/7/5 201/7/5 206/7/5
f 208/7/5 203/7/5 202/7/5
f 208/4/5 202/4/5 207/4/5
f 209/7/5 203/7/5 208/7/5
f 210/4/5 207/4/5 206/4/5
f 210/7/5 204/7/5 198/7/5
f 210/4/5 209/4/5 208/4/5
f 210/4/5 208/4/5 207/4/5
f 210/4/5 206/4/5 205/4/5
f 210/4/5 205/4/5 204/4/5
f 211/4/5 209/4/5 210/4/5
f 212/4/5 209/4/5 211/4/5
f 213/4/5 209/4/5 212/4/5
f 214/4/5 209/4/5 213/4/5
f 215/7/5 203/7/5 209/7/5
f 215/4/5 209/4/5 214/4/5
f 216/7/5 210/7/5 198/7/5
f 216/7/5 211/7/5 210/7/5
f 217/7/5 211/7/5 216/7/5
f 218/4/5 212/4/5 211/4/5
f 218/7/5 211/7/5 217/7/5
f 219/7/5 213/7/5 212/7/5
f 219/4/5 212/4/5 218/4/5
f 220/4/5 214/4/5 213/4/5
f 220/7/5 213/7/5 219/7/5
f 221/7/5 215/7/5 214/7/5
f 221/4/5 214/4/5 220/4/5
f 222/7/5 203/7/5 215/7/5
f 222/7/5 215/7/5 221/7/5
f 223/3/6 224/3/6 227/3/6
f 227/3/6 224/3/6 228/3/6
f 225/3/6 226/3/6 229/3/6
f 229/3/6 226/3/6 230/3/6
f 231/3/6 232/3/6 235/3/6
f 235/3/6 232/3/6 236/3/6
f 233/3/6 234/3/6 237/3/6
f 237/3/6 234/3/6 238/3/6
f 239/7/6 240/7/6 241/7/6
f 241/7/6 240/7/6 242/7/6
f 239/7/6 241/7/6 243/7/6
f 241/4/6 242/4/6 243/4/6
f 242/7/6 240/7/6 244/7/6
f 243/4/6 242/4/6 244/4/6
f 239/7/6 243/7/6 245/7/6
f 243/7/6 244/7/6 245/7/6
f 244/7/6 240/7/6 246/7/6
f 245/7/6 244/7/6 246/7/6
f 247/7/6 248/7/6 249/7/6
f 249/7/6 248/7/6 250/7/6
f 247/7/6 249/7/6 251/7/6
f 249/4/6 250/4/6 251/4/6
f 250/7/6 248/7/6 252/7/6
f 251/4/6 250/4/6 252/4/6
f 247/7/6 251/7/6 253/7/6
f 251/7/6 252/7/6 253/7/6
f 252/7/6 248/7/6 254/7/6
f 253/7/6 252/7/6 254/7/6
