# MagicaVoxel @ Ephtracy

# group
o 

# material
mtllib RR_light.mtl
usemtl palette

# normals
vn -1 0 0
vn 1 0 0
vn 0 0 1
vn 0 0 -1
vn 0 -1 0
vn 0 1 0

# texcoords
vt 0.0644531 0.5
vt 0.841797 0.5
vt 0.958984 0.5
vt 0.990234 0.5

# verts
v -0.2 1 0.1
v -0.2 1 -0.1
v -0.2 1.2 0.1
v -0.2 1.2 -0.1
v -0.1 0.9 0.1
v -0.1 0.9 0
v -0.1 1 0.1
v -0.1 1 0
v 0 0 0
v 0 0 -0.1
v 0 0.1 0
v 0 0.1 -0.1
v 0 0.2 0
v 0 0.2 -0.1
v 0 0.3 0
v 0 0.3 -0.1
v 0 0.4 0
v 0 0.4 -0.1
v 0 0.5 0
v 0 0.5 -0.1
v 0 0.6 0
v 0 0.6 -0.1
v 0 0.7 0
v 0 0.7 -0.1
v 0 0.8 0
v 0 0.8 -0.1
v 0 0.9 0
v 0 0.9 -0.1
v 0 1 0
v 0 1 -0.1
v 0 1.2 0
v 0 1.2 -0.1
v 0 1.3 0
v 0 1.3 -0.1
v 0.1 0.9 0.1
v 0.1 0.9 0
v 0.1 1 0.1
v 0.1 1 0
v 0 0.9 0.1
v 0 0.9 0
v 0 1 0.1
v 0 1 0
v 0.1 0 0
v 0.1 0 -0.1
v 0.1 0.1 0
v 0.1 0.1 -0.1
v 0.1 0.2 0
v 0.1 0.2 -0.1
v 0.1 0.3 0
v 0.1 0.3 -0.1
v 0.1 0.4 0
v 0.1 0.4 -0.1
v 0.1 0.5 0
v 0.1 0.5 -0.1
v 0.1 0.6 0
v 0.1 0.6 -0.1
v 0.1 0.7 0
v 0.1 0.7 -0.1
v 0.1 0.8 0
v 0.1 0.8 -0.1
v 0.1 0.9 0
v 0.1 0.9 -0.1
v 0.1 1 0
v 0.1 1 -0.1
v 0.1 1.2 0
v 0.1 1.2 -0.1
v 0.1 1.3 0
v 0.1 1.3 -0.1
v 0.2 0.9 0.1
v 0.2 0.9 0
v 0.2 1 0.1
v 0.2 1 0
v 0.3 1 0.1
v 0.3 1 -0.1
v 0.3 1.2 0.1
v 0.3 1.2 -0.1
v -0.2 1 0.1
v -0.2 1.2 0.1
v -0.1 0.9 0.1
v -0.1 1 0.1
v 0 0.9 0.1
v 0 1 0.1
v 0.1 0.9 0.1
v 0.1 1 0.1
v 0.2 0.9 0.1
v 0.2 1 0.1
v 0.3 1 0.1
v 0.3 1.2 0.1
v 0 0 0
v 0 0.1 0
v 0 0.2 0
v 0 0.3 0
v 0 0.4 0
v 0 0.5 0
v 0 0.6 0
v 0 0.7 0
v 0 0.8 0
v 0 0.9 0
v 0 1 0
v 0 1.2 0
v 0 1.3 0
v 0.1 0 0
v 0.1 0.1 0
v 0.1 0.2 0
v 0.1 0.3 0
v 0.1 0.4 0
v 0.1 0.5 0
v 0.1 0.6 0
v 0.1 0.7 0
v 0.1 0.8 0
v 0.1 0.9 0
v 0.1 1 0
v 0.1 1.2 0
v 0.1 1.3 0
v -0.1 0.9 0
v -0.1 1 0
v 0 0.9 0
v 0 1 0
v 0.1 0.9 0
v 0.1 1 0
v 0.2 0.9 0
v 0.2 1 0
v -0.2 1 -0.1
v -0.2 1.2 -0.1
v 0 0 -0.1
v 0 0.1 -0.1
v 0 0.2 -0.1
v 0 0.3 -0.1
v 0 0.4 -0.1
v 0 0.5 -0.1
v 0 0.6 -0.1
v 0 0.7 -0.1
v 0 0.8 -0.1
v 0 0.9 -0.1
v 0 1 -0.1
v 0 1.1 -0.1
v 0 1.2 -0.1
v 0 1.3 -0.1
v 0.1 0 -0.1
v 0.1 0.1 -0.1
v 0.1 0.2 -0.1
v 0.1 0.3 -0.1
v 0.1 0.4 -0.1
v 0.1 0.5 -0.1
v 0.1 0.6 -0.1
v 0.1 0.7 -0.1
v 0.1 0.8 -0.1
v 0.1 0.9 -0.1
v 0.1 1 -0.1
v 0.1 1.1 -0.1
v 0.1 1.2 -0.1
v 0.1 1.3 -0.1
v 0.3 1 -0.1
v 0.3 1.2 -0.1
v 0 0 0
v 0.1 0 0
v 0 0 -0.1
v 0.1 0 -0.1
v -0.1 0.9 0.1
v 0 0.9 0.1
v 0.1 0.9 0.1
v 0.2 0.9 0.1
v -0.1 0.9 0
v 0 0.9 0
v 0.1 0.9 0
v 0.2 0.9 0
v -0.2 1 0.1
v -0.1 1 0.1
v 0 1 0.1
v 0.1 1 0.1
v 0.2 1 0.1
v 0.3 1 0.1
v -0.1 1 0
v 0 1 0
v 0.1 1 0
v 0.2 1 0
v -0.2 1 -0.1
v 0 1 -0.1
v 0.1 1 -0.1
v 0.3 1 -0.1
v -0.2 1.2 0.1
v 0.3 1.2 0.1
v 0 1.2 0
v 0.1 1.2 0
v -0.2 1.2 -0.1
v 0 1.2 -0.1
v 0.1 1.2 -0.1
v 0.3 1.2 -0.1
v 0 1.3 0
v 0.1 1.3 0
v 0 1.3 -0.1
v 0.1 1.3 -0.1

# faces
f 3/4/1 2/4/1 1/4/1
f 4/4/1 2/4/1 3/4/1
f 7/1/1 6/1/1 5/1/1
f 8/1/1 6/1/1 7/1/1
f 11/3/1 10/3/1 9/3/1
f 12/3/1 10/3/1 11/3/1
f 13/2/1 12/2/1 11/2/1
f 14/2/1 12/2/1 13/2/1
f 15/3/1 14/3/1 13/3/1
f 16/3/1 14/3/1 15/3/1
f 17/2/1 16/2/1 15/2/1
f 18/2/1 16/2/1 17/2/1
f 19/3/1 18/3/1 17/3/1
f 20/3/1 18/3/1 19/3/1
f 21/2/1 20/2/1 19/2/1
f 22/2/1 20/2/1 21/2/1
f 23/3/1 22/3/1 21/3/1
f 24/3/1 22/3/1 23/3/1
f 25/2/1 24/2/1 23/2/1
f 26/2/1 24/2/1 25/2/1
f 27/3/1 26/3/1 25/3/1
f 28/3/1 26/3/1 27/3/1
f 29/2/1 28/2/1 27/2/1
f 30/2/1 28/2/1 29/2/1
f 33/3/1 32/3/1 31/3/1
f 34/3/1 32/3/1 33/3/1
f 37/1/1 36/1/1 35/1/1
f 38/1/1 36/1/1 37/1/1
f 39/1/2 40/1/2 41/1/2
f 41/1/2 40/1/2 42/1/2
f 43/3/2 44/3/2 45/3/2
f 45/3/2 44/3/2 46/3/2
f 45/2/2 46/2/2 47/2/2
f 47/2/2 46/2/2 48/2/2
f 47/3/2 48/3/2 49/3/2
f 49/3/2 48/3/2 50/3/2
f 49/2/2 50/2/2 51/2/2
f 51/2/2 50/2/2 52/2/2
f 51/3/2 52/3/2 53/3/2
f 53/3/2 52/3/2 54/3/2
f 53/2/2 54/2/2 55/2/2
f 55/2/2 54/2/2 56/2/2
f 55/3/2 56/3/2 57/3/2
f 57/3/2 56/3/2 58/3/2
f 57/2/2 58/2/2 59/2/2
f 59/2/2 58/2/2 60/2/2
f 59/3/2 60/3/2 61/3/2
f 61/3/2 60/3/2 62/3/2
f 61/2/2 62/2/2 63/2/2
f 63/2/2 62/2/2 64/2/2
f 65/3/2 66/3/2 67/3/2
f 67/3/2 66/3/2 68/3/2
f 69/1/2 70/1/2 71/1/2
f 71/1/2 70/1/2 72/1/2
f 73/4/2 74/4/2 75/4/2
f 75/4/2 74/4/2 76/4/2
f 80/4/3 78/4/3 77/4/3
f 81/1/3 80/1/3 79/1/3
f 82/4/3 78/4/3 80/4/3
f 82/1/3 80/1/3 81/1/3
f 84/4/3 78/4/3 82/4/3
f 85/1/3 84/1/3 83/1/3
f 86/4/3 78/4/3 84/4/3
f 86/1/3 84/1/3 85/1/3
f 87/4/3 78/4/3 86/4/3
f 88/4/3 78/4/3 87/4/3
f 102/3/3 90/3/3 89/3/3
f 103/2/3 91/2/3 90/2/3
f 103/3/3 90/3/3 102/3/3
f 104/3/3 92/3/3 91/3/3
f 104/2/3 91/2/3 103/2/3
f 105/2/3 93/2/3 92/2/3
f 105/3/3 92/3/3 104/3/3
f 106/3/3 94/3/3 93/3/3
f 106/2/3 93/2/3 105/2/3
f 107/2/3 95/2/3 94/2/3
f 107/3/3 94/3/3 106/3/3
f 108/3/3 96/3/3 95/3/3
f 108/2/3 95/2/3 107/2/3
f 109/2/3 97/2/3 96/2/3
f 109/3/3 96/3/3 108/3/3
f 110/3/3 98/3/3 97/3/3
f 110/2/3 97/2/3 109/2/3
f 111/2/3 99/2/3 98/2/3
f 111/3/3 98/3/3 110/3/3
f 112/2/3 99/2/3 111/2/3
f 113/3/3 101/3/3 100/3/3
f 114/3/3 101/3/3 113/3/3
f 115/1/4 116/1/4 117/1/4
f 117/1/4 116/1/4 118/1/4
f 119/1/4 120/1/4 121/1/4
f 121/1/4 120/1/4 122/1/4
f 123/4/4 124/4/4 135/4/4
f 135/4/4 124/4/4 136/4/4
f 136/4/4 124/4/4 137/4/4
f 125/3/4 126/3/4 139/3/4
f 126/2/4 127/2/4 140/2/4
f 139/3/4 126/3/4 140/3/4
f 127/3/4 128/3/4 141/3/4
f 140/2/4 127/2/4 141/2/4
f 128/2/4 129/2/4 142/2/4
f 141/3/4 128/3/4 142/3/4
f 129/3/4 130/3/4 143/3/4
f 142/2/4 129/2/4 143/2/4
f 130/2/4 131/2/4 144/2/4
f 143/3/4 130/3/4 144/3/4
f 131/3/4 132/3/4 145/3/4
f 144/2/4 131/2/4 145/2/4
f 132/2/4 133/2/4 146/2/4
f 145/3/4 132/3/4 146/3/4
f 133/3/4 134/3/4 147/3/4
f 146/2/4 133/2/4 147/2/4
f 134/2/4 135/2/4 148/2/4
f 147/3/4 134/3/4 148/3/4
f 135/3/4 136/3/4 149/3/4
f 148/2/4 135/2/4 149/2/4
f 136/2/4 137/2/4 150/2/4
f 149/3/4 136/3/4 150/3/4
f 137/3/4 138/3/4 151/3/4
f 150/2/4 137/2/4 151/2/4
f 151/3/4 138/3/4 152/3/4
f 149/4/4 150/4/4 153/4/4
f 150/4/4 151/4/4 153/4/4
f 153/4/4 151/4/4 154/4/4
f 157/3/5 156/3/5 155/3/5
f 158/3/5 156/3/5 157/3/5
f 163/1/5 160/1/5 159/1/5
f 164/1/5 160/1/5 163/1/5
f 165/1/5 162/1/5 161/1/5
f 166/1/5 162/1/5 165/1/5
f 173/4/5 168/4/5 167/4/5
f 174/4/5 170/4/5 169/4/5
f 175/4/5 170/4/5 174/4/5
f 176/4/5 172/4/5 171/4/5
f 177/4/5 173/4/5 167/4/5
f 177/4/5 174/4/5 173/4/5
f 178/4/5 174/4/5 177/4/5
f 179/4/5 176/4/5 175/4/5
f 180/4/5 172/4/5 176/4/5
f 180/4/5 176/4/5 179/4/5
f 181/4/6 182/4/6 183/4/6
f 183/4/6 182/4/6 184/4/6
f 181/4/6 183/4/6 185/4/6
f 185/4/6 183/4/6 186/4/6
f 184/4/6 182/4/6 187/4/6
f 187/4/6 182/4/6 188/4/6
f 189/3/6 190/3/6 191/3/6
f 191/3/6 190/3/6 192/3/6
