# MagicaVoxel @ Ephtracy

# group
o 

# material
mtllib car.mtl
usemtl palette

# normals
vn -1 0 0
vn 1 0 0
vn 0 0 1
vn 0 0 -1
vn 0 -1 0
vn 0 1 0

# texcoords
vt 0.00976563 0.5
vt 0.716797 0.5
vt 0.841797 0.5
vt 0.958984 0.5
vt 0.966797 0.5
vt 0.986328 0.5
vt 0.994141 0.5

# verts
v -0.5 0 0.5
v -0.5 0 0.2
v -0.5 0 -0.3
v -0.5 0 -0.6
v -0.5 0.1 0.4
v -0.5 0.1 0.3
v -0.5 0.1 -0.4
v -0.5 0.1 -0.5
v -0.5 0.2 0.7
v -0.5 0.2 0.5
v -0.5 0.2 0.4
v -0.5 0.2 0.3
v -0.5 0.2 0.2
v -0.5 0.2 -0.3
v -0.5 0.2 -0.4
v -0.5 0.2 -0.5
v -0.5 0.2 -0.6
v -0.5 0.2 -0.8
v -0.5 0.3 0.7
v -0.5 0.3 0.6
v -0.5 0.3 0.5
v -0.5 0.3 0.3
v -0.5 0.3 0.2
v -0.5 0.3 -0.1
v -0.5 0.3 -0.2
v -0.5 0.3 -0.3
v -0.5 0.3 -0.5
v -0.5 0.3 -0.6
v -0.5 0.3 -0.7
v -0.5 0.3 -0.8
v -0.5 0.4 0.7
v -0.5 0.4 0.6
v -0.5 0.4 0
v -0.5 0.4 -0.1
v -0.5 0.4 -0.7
v -0.5 0.4 -0.8
v -0.5 0.5 0.7
v -0.5 0.5 0.6
v -0.5 0.5 0.2
v -0.5 0.5 0
v -0.5 0.5 -0.2
v -0.5 0.5 -0.5
v -0.5 0.5 -0.7
v -0.5 0.5 -0.8
v -0.5 0.6 0.7
v -0.5 0.6 0.3
v -0.5 0.6 0.2
v -0.5 0.6 0.1
v -0.5 0.6 -0.1
v -0.5 0.6 -0.2
v -0.5 0.6 -0.5
v -0.5 0.6 -0.6
v -0.5 0.6 -0.8
v -0.5 0.9 0.1
v -0.5 0.9 -0.1
v -0.5 0.9 -0.2
v -0.5 0.9 -0.5
v -0.5 1 0.2
v -0.5 1 -0.6
v 0.4 0 0.5
v 0.4 0 0.2
v 0.4 0 -0.3
v 0.4 0 -0.6
v 0.4 0.1 0.4
v 0.4 0.1 0.3
v 0.4 0.1 -0.4
v 0.4 0.1 -0.5
v 0.4 0.2 0.5
v 0.4 0.2 0.4
v 0.4 0.2 0.3
v 0.4 0.2 0.2
v 0.4 0.2 -0.3
v 0.4 0.2 -0.4
v 0.4 0.2 -0.5
v 0.4 0.2 -0.6
v 0.4 0.3 0.5
v 0.4 0.3 0.2
v 0.4 0.3 -0.3
v 0.4 0.3 -0.6
v -0.4 0 0.5
v -0.4 0 0.2
v -0.4 0 -0.3
v -0.4 0 -0.6
v -0.4 0.1 0.4
v -0.4 0.1 0.3
v -0.4 0.1 -0.4
v -0.4 0.1 -0.5
v -0.4 0.2 0.5
v -0.4 0.2 0.4
v -0.4 0.2 0.3
v -0.4 0.2 0.2
v -0.4 0.2 -0.3
v -0.4 0.2 -0.4
v -0.4 0.2 -0.5
v -0.4 0.2 -0.6
v -0.4 0.3 0.5
v -0.4 0.3 0.2
v -0.4 0.3 -0.3
v -0.4 0.3 -0.6
v 0.5 0 0.5
v 0.5 0 0.2
v 0.5 0 -0.3
v 0.5 0 -0.6
v 0.5 0.1 0.4
v 0.5 0.1 0.3
v 0.5 0.1 -0.4
v 0.5 0.1 -0.5
v 0.5 0.2 0.7
v 0.5 0.2 0.5
v 0.5 0.2 0.4
v 0.5 0.2 0.3
v 0.5 0.2 0.2
v 0.5 0.2 -0.3
v 0.5 0.2 -0.4
v 0.5 0.2 -0.5
v 0.5 0.2 -0.6
v 0.5 0.2 -0.8
v 0.5 0.3 0.7
v 0.5 0.3 0.6
v 0.5 0.3 0.5
v 0.5 0.3 0.3
v 0.5 0.3 0.2
v 0.5 0.3 -0.1
v 0.5 0.3 -0.2
v 0.5 0.3 -0.3
v 0.5 0.3 -0.5
v 0.5 0.3 -0.6
v 0.5 0.3 -0.7
v 0.5 0.3 -0.8
v 0.5 0.4 0.7
v 0.5 0.4 0.6
v 0.5 0.4 0
v 0.5 0.4 -0.1
v 0.5 0.4 -0.7
v 0.5 0.4 -0.8
v 0.5 0.5 0.7
v 0.5 0.5 0.6
v 0.5 0.5 0.2
v 0.5 0.5 0
v 0.5 0.5 -0.2
v 0.5 0.5 -0.5
v 0.5 0.5 -0.7
v 0.5 0.5 -0.8
v 0.5 0.6 0.7
v 0.5 0.6 0.3
v 0.5 0.6 0.2
v 0.5 0.6 0.1
v 0.5 0.6 -0.1
v 0.5 0.6 -0.2
v 0.5 0.6 -0.5
v 0.5 0.6 -0.6
v 0.5 0.6 -0.8
v 0.5 0.9 0.1
v 0.5 0.9 -0.1
v 0.5 0.9 -0.2
v 0.5 0.9 -0.5
v 0.5 1 0.2
v 0.5 1 -0.6
v -0.5 0.2 0.7
v -0.5 0.3 0.7
v -0.5 0.4 0.7
v -0.5 0.5 0.7
v -0.5 0.6 0.7
v -0.3 0.3 0.7
v -0.3 0.4 0.7
v -0.3 0.5 0.7
v -0.1 0.5 0.7
v -0.1 0.6 0.7
v 0.1 0.5 0.7
v 0.1 0.6 0.7
v 0.3 0.3 0.7
v 0.3 0.4 0.7
v 0.3 0.5 0.7
v 0.5 0.2 0.7
v 0.5 0.3 0.7
v 0.5 0.4 0.7
v 0.5 0.5 0.7
v 0.5 0.6 0.7
v -0.5 0 0.5
v -0.5 0.2 0.5
v -0.4 0 0.5
v -0.4 0.2 0.5
v 0.4 0 0.5
v 0.4 0.2 0.5
v 0.5 0 0.5
v 0.5 0.2 0.5
v -0.5 0.6 0.2
v -0.5 1 0.2
v -0.4 0.2 0.2
v -0.4 0.3 0.2
v -0.4 0.6 0.2
v -0.4 0.9 0.2
v 0.4 0.2 0.2
v 0.4 0.3 0.2
v 0.4 0.6 0.2
v 0.4 0.9 0.2
v 0.5 0.6 0.2
v 0.5 1 0.2
v -0.5 0 -0.3
v -0.5 0.2 -0.3
v -0.4 0 -0.3
v -0.4 0.2 -0.3
v 0.4 0 -0.3
v 0.4 0.2 -0.3
v 0.5 0 -0.3
v 0.5 0.2 -0.3
v -0.4 0.2 -0.6
v -0.4 0.3 -0.6
v 0.4 0.2 -0.6
v 0.4 0.3 -0.6
v -0.4 0.2 0.5
v -0.4 0.3 0.5
v 0.4 0.2 0.5
v 0.4 0.3 0.5
v -0.5 0 0.2
v -0.5 0.2 0.2
v -0.4 0 0.2
v -0.4 0.2 0.2
v 0.4 0 0.2
v 0.4 0.2 0.2
v 0.5 0 0.2
v 0.5 0.2 0.2
v -0.4 0.2 -0.3
v -0.4 0.3 -0.3
v 0.4 0.2 -0.3
v 0.4 0.3 -0.3
v -0.5 0 -0.6
v -0.5 0.2 -0.6
v -0.5 0.6 -0.6
v -0.5 1 -0.6
v -0.4 0 -0.6
v -0.4 0.2 -0.6
v -0.4 0.6 -0.6
v -0.4 0.9 -0.6
v 0.4 0 -0.6
v 0.4 0.2 -0.6
v 0.4 0.6 -0.6
v 0.4 0.9 -0.6
v 0.5 0 -0.6
v 0.5 0.2 -0.6
v 0.5 0.6 -0.6
v 0.5 1 -0.6
v -0.5 0.2 -0.8
v -0.5 0.3 -0.8
v -0.5 0.4 -0.8
v -0.5 0.5 -0.8
v -0.5 0.6 -0.8
v -0.3 0.3 -0.8
v -0.3 0.4 -0.8
v -0.3 0.5 -0.8
v -0.2 0.3 -0.8
v -0.2 0.4 -0.8
v 0.2 0.3 -0.8
v 0.2 0.4 -0.8
v 0.3 0.3 -0.8
v 0.3 0.4 -0.8
v 0.3 0.5 -0.8
v 0.5 0.2 -0.8
v 0.5 0.3 -0.8
v 0.5 0.4 -0.8
v 0.5 0.5 -0.8
v 0.5 0.6 -0.8
v -0.5 0 0.5
v -0.4 0 0.5
v 0.4 0 0.5
v 0.5 0 0.5
v -0.5 0 0.2
v -0.4 0 0.2
v 0.4 0 0.2
v 0.5 0 0.2
v -0.5 0 -0.3
v -0.4 0 -0.3
v 0.4 0 -0.3
v 0.5 0 -0.3
v -0.5 0 -0.6
v -0.4 0 -0.6
v 0.4 0 -0.6
v 0.5 0 -0.6
v -0.5 0.2 0.7
v 0.5 0.2 0.7
v -0.5 0.2 0.5
v -0.4 0.2 0.5
v 0.4 0.2 0.5
v 0.5 0.2 0.5
v -0.5 0.2 0.2
v -0.4 0.2 0.2
v 0.4 0.2 0.2
v 0.5 0.2 0.2
v -0.5 0.2 -0.3
v -0.4 0.2 -0.3
v 0.4 0.2 -0.3
v 0.5 0.2 -0.3
v -0.5 0.2 -0.6
v -0.4 0.2 -0.6
v 0.4 0.2 -0.6
v 0.5 0.2 -0.6
v -0.5 0.2 -0.8
v 0.5 0.2 -0.8
v -0.4 0.3 0.5
v 0.4 0.3 0.5
v -0.4 0.3 0.2
v 0.4 0.3 0.2
v -0.4 0.3 -0.3
v 0.4 0.3 -0.3
v -0.4 0.3 -0.6
v 0.4 0.3 -0.6
v -0.5 0.6 0.7
v -0.1 0.6 0.7
v 0.1 0.6 0.7
v 0.5 0.6 0.7
v -0.2 0.6 0.6
v -0.1 0.6 0.6
v 0.1 0.6 0.6
v 0.2 0.6 0.6
v -0.3 0.6 0.5
v -0.2 0.6 0.5
v 0.2 0.6 0.5
v 0.3 0.6 0.5
v -0.4 0.6 0.4
v -0.3 0.6 0.4
v 0.3 0.6 0.4
v 0.4 0.6 0.4
v -0.5 0.6 0.3
v -0.4 0.6 0.3
v 0.4 0.6 0.3
v 0.5 0.6 0.3
v -0.5 0.6 0.2
v -0.4 0.6 0.2
v 0.4 0.6 0.2
v 0.5 0.6 0.2
v -0.5 0.6 -0.6
v -0.4 0.6 -0.6
v 0.4 0.6 -0.6
v 0.5 0.6 -0.6
v -0.5 0.6 -0.8
v 0.5 0.6 -0.8
v -0.5 1 0.2
v 0.5 1 0.2
v -0.4 1 0.1
v 0.4 1 0.1
v -0.4 1 -0.5
v 0.4 1 -0.5
v -0.5 1 -0.6
v 0.5 1 -0.6

# faces
f 5/7/1 2/7/1 1/7/1
f 6/7/1 2/7/1 5/7/1
f 7/7/1 4/7/1 3/7/1
f 8/7/1 4/7/1 7/7/1
f 10/7/1 5/7/1 1/7/1
f 11/4/1 6/4/1 5/4/1
f 11/7/1 5/7/1 10/7/1
f 12/7/1 2/7/1 6/7/1
f 12/4/1 6/4/1 11/4/1
f 13/7/1 2/7/1 12/7/1
f 14/7/1 7/7/1 3/7/1
f 15/4/1 8/4/1 7/4/1
f 15/7/1 7/7/1 14/7/1
f 16/7/1 4/7/1 8/7/1
f 16/4/1 8/4/1 15/4/1
f 17/7/1 4/7/1 16/7/1
f 19/5/1 10/5/1 9/5/1
f 20/5/1 10/5/1 19/5/1
f 21/7/1 11/7/1 10/7/1
f 21/5/1 10/5/1 20/5/1
f 21/7/1 13/7/1 12/7/1
f 21/7/1 12/7/1 11/7/1
f 22/7/1 13/7/1 21/7/1
f 23/5/1 14/5/1 13/5/1
f 23/7/1 13/7/1 22/7/1
f 24/5/1 14/5/1 23/5/1
f 25/5/1 14/5/1 24/5/1
f 26/7/1 15/7/1 14/7/1
f 26/5/1 14/5/1 25/5/1
f 26/7/1 17/7/1 16/7/1
f 26/7/1 16/7/1 15/7/1
f 27/7/1 17/7/1 26/7/1
f 28/5/1 18/5/1 17/5/1
f 28/7/1 17/7/1 27/7/1
f 29/5/1 18/5/1 28/5/1
f 30/5/1 18/5/1 29/5/1
f 31/3/1 20/3/1 19/3/1
f 32/2/1 22/2/1 21/2/1
f 32/3/1 20/3/1 31/3/1
f 32/2/1 21/2/1 20/2/1
f 33/2/1 24/2/1 23/2/1
f 34/6/1 25/6/1 24/6/1
f 34/2/1 24/2/1 33/2/1
f 35/3/1 30/3/1 29/3/1
f 35/2/1 29/2/1 28/2/1
f 36/3/1 30/3/1 35/3/1
f 37/1/1 32/1/1 31/1/1
f 38/2/1 22/2/1 32/2/1
f 38/1/1 32/1/1 37/1/1
f 39/2/1 33/2/1 23/2/1
f 39/6/1 23/6/1 22/6/1
f 40/6/1 34/6/1 33/6/1
f 40/2/1 33/2/1 39/2/1
f 41/2/1 27/2/1 26/2/1
f 41/6/1 34/6/1 40/6/1
f 41/6/1 25/6/1 34/6/1
f 41/2/1 26/2/1 25/2/1
f 42/6/1 28/6/1 27/6/1
f 42/2/1 27/2/1 41/2/1
f 43/1/1 36/1/1 35/1/1
f 43/2/1 35/2/1 28/2/1
f 44/1/1 36/1/1 43/1/1
f 45/2/1 38/2/1 37/2/1
f 46/2/1 22/2/1 38/2/1
f 46/2/1 38/2/1 45/2/1
f 46/6/1 40/6/1 39/6/1
f 46/6/1 42/6/1 41/6/1
f 46/6/1 41/6/1 40/6/1
f 46/6/1 39/6/1 22/6/1
f 47/6/1 42/6/1 46/6/1
f 48/6/1 42/6/1 47/6/1
f 49/6/1 42/6/1 48/6/1
f 50/6/1 42/6/1 49/6/1
f 51/6/1 28/6/1 42/6/1
f 51/6/1 42/6/1 50/6/1
f 52/2/1 44/2/1 43/2/1
f 52/6/1 28/6/1 51/6/1
f 52/2/1 43/2/1 28/2/1
f 53/2/1 44/2/1 52/2/1
f 54/4/1 49/4/1 48/4/1
f 54/6/1 48/6/1 47/6/1
f 55/6/1 50/6/1 49/6/1
f 55/4/1 49/4/1 54/4/1
f 56/4/1 51/4/1 50/4/1
f 56/6/1 50/6/1 55/6/1
f 57/6/1 52/6/1 51/6/1
f 57/4/1 51/4/1 56/4/1
f 58/6/1 55/6/1 54/6/1
f 58/6/1 54/6/1 47/6/1
f 58/6/1 57/6/1 56/6/1
f 58/6/1 56/6/1 55/6/1
f 59/6/1 52/6/1 57/6/1
f 59/6/1 57/6/1 58/6/1
f 64/7/1 61/7/1 60/7/1
f 65/7/1 61/7/1 64/7/1
f 66/7/1 63/7/1 62/7/1
f 67/7/1 63/7/1 66/7/1
f 68/7/1 64/7/1 60/7/1
f 69/4/1 65/4/1 64/4/1
f 69/7/1 64/7/1 68/7/1
f 70/7/1 61/7/1 65/7/1
f 70/4/1 65/4/1 69/4/1
f 71/7/1 61/7/1 70/7/1
f 72/7/1 66/7/1 62/7/1
f 73/4/1 67/4/1 66/4/1
f 73/7/1 66/7/1 72/7/1
f 74/7/1 63/7/1 67/7/1
f 74/4/1 67/4/1 73/4/1
f 75/7/1 63/7/1 74/7/1
f 76/7/1 69/7/1 68/7/1
f 76/7/1 71/7/1 70/7/1
f 76/7/1 70/7/1 69/7/1
f 77/7/1 71/7/1 76/7/1
f 78/7/1 73/7/1 72/7/1
f 78/7/1 75/7/1 74/7/1
f 78/7/1 74/7/1 73/7/1
f 79/7/1 75/7/1 78/7/1
f 80/7/2 81/7/2 84/7/2
f 84/7/2 81/7/2 85/7/2
f 82/7/2 83/7/2 86/7/2
f 86/7/2 83/7/2 87/7/2
f 80/7/2 84/7/2 88/7/2
f 84/4/2 85/4/2 89/4/2
f 88/7/2 84/7/2 89/7/2
f 85/7/2 81/7/2 90/7/2
f 89/4/2 85/4/2 90/4/2
f 90/7/2 81/7/2 91/7/2
f 82/7/2 86/7/2 92/7/2
f 86/4/2 87/4/2 93/4/2
f 92/7/2 86/7/2 93/7/2
f 87/7/2 83/7/2 94/7/2
f 93/4/2 87/4/2 94/4/2
f 94/7/2 83/7/2 95/7/2
f 88/7/2 89/7/2 96/7/2
f 90/7/2 91/7/2 96/7/2
f 89/7/2 90/7/2 96/7/2
f 96/7/2 91/7/2 97/7/2
f 92/7/2 93/7/2 98/7/2
f 94/7/2 95/7/2 98/7/2
f 93/7/2 94/7/2 98/7/2
f 98/7/2 95/7/2 99/7/2
f 100/7/2 101/7/2 104/7/2
f 104/7/2 101/7/2 105/7/2
f 102/7/2 103/7/2 106/7/2
f 106/7/2 103/7/2 107/7/2
f 100/7/2 104/7/2 109/7/2
f 104/4/2 105/4/2 110/4/2
f 109/7/2 104/7/2 110/7/2
f 105/7/2 101/7/2 111/7/2
f 110/4/2 105/4/2 111/4/2
f 111/7/2 101/7/2 112/7/2
f 102/7/2 106/7/2 113/7/2
f 106/4/2 107/4/2 114/4/2
f 113/7/2 106/7/2 114/7/2
f 107/7/2 103/7/2 115/7/2
f 114/4/2 107/4/2 115/4/2
f 115/7/2 103/7/2 116/7/2
f 108/5/2 109/5/2 118/5/2
f 118/5/2 109/5/2 119/5/2
f 109/7/2 110/7/2 120/7/2
f 119/5/2 109/5/2 120/5/2
f 111/7/2 112/7/2 120/7/2
f 110/7/2 111/7/2 120/7/2
f 120/7/2 112/7/2 121/7/2
f 112/5/2 113/5/2 122/5/2
f 121/7/2 112/7/2 122/7/2
f 122/5/2 113/5/2 123/5/2
f 123/5/2 113/5/2 124/5/2
f 113/7/2 114/7/2 125/7/2
f 124/5/2 113/5/2 125/5/2
f 115/7/2 116/7/2 125/7/2
f 114/7/2 115/7/2 125/7/2
f 125/7/2 116/7/2 126/7/2
f 116/5/2 117/5/2 127/5/2
f 126/7/2 116/7/2 127/7/2
f 127/5/2 117/5/2 128/5/2
f 128/5/2 117/5/2 129/5/2
f 118/3/2 119/3/2 130/3/2
f 120/2/2 121/2/2 131/2/2
f 130/3/2 119/3/2 131/3/2
f 119/2/2 120/2/2 131/2/2
f 122/2/2 123/2/2 132/2/2
f 123/6/2 124/6/2 133/6/2
f 132/2/2 123/2/2 133/2/2
f 128/3/2 129/3/2 134/3/2
f 127/2/2 128/2/2 134/2/2
f 134/3/2 129/3/2 135/3/2
f 130/1/2 131/1/2 136/1/2
f 131/2/2 121/2/2 137/2/2
f 136/1/2 131/1/2 137/1/2
f 122/2/2 132/2/2 138/2/2
f 121/6/2 122/6/2 138/6/2
f 132/6/2 133/6/2 139/6/2
f 138/2/2 132/2/2 139/2/2
f 125/2/2 126/2/2 140/2/2
f 139/6/2 133/6/2 140/6/2
f 133/6/2 124/6/2 140/6/2
f 124/2/2 125/2/2 140/2/2
f 126/6/2 127/6/2 141/6/2
f 140/2/2 126/2/2 141/2/2
f 134/1/2 135/1/2 142/1/2
f 127/2/2 134/2/2 142/2/2
f 142/1/2 135/1/2 143/1/2
f 136/2/2 137/2/2 144/2/2
f 137/2/2 121/2/2 145/2/2
f 144/2/2 137/2/2 145/2/2
f 138/6/2 139/6/2 145/6/2
f 140/6/2 141/6/2 145/6/2
f 139/6/2 140/6/2 145/6/2
f 121/6/2 138/6/2 145/6/2
f 145/6/2 141/6/2 146/6/2
f 146/6/2 141/6/2 147/6/2
f 147/6/2 141/6/2 148/6/2
f 148/6/2 141/6/2 149/6/2
f 141/6/2 127/6/2 150/6/2
f 149/6/2 141/6/2 150/6/2
f 142/2/2 143/2/2 151/2/2
f 150/6/2 127/6/2 151/6/2
f 127/2/2 142/2/2 151/2/2
f 151/2/2 143/2/2 152/2/2
f 147/4/2 148/4/2 153/4/2
f 146/6/2 147/6/2 153/6/2
f 148/6/2 149/6/2 154/6/2
f 153/4/2 148/4/2 154/4/2
f 149/4/2 150/4/2 155/4/2
f 154/6/2 149/6/2 155/6/2
f 150/6/2 151/6/2 156/6/2
f 155/4/2 150/4/2 156/4/2
f 153/6/2 154/6/2 157/6/2
f 146/6/2 153/6/2 157/6/2
f 155/6/2 156/6/2 157/6/2
f 154/6/2 155/6/2 157/6/2
f 156/6/2 151/6/2 158/6/2
f 157/6/2 156/6/2 158/6/2
f 164/5/3 160/5/3 159/5/3
f 164/3/3 161/3/3 160/3/3
f 165/1/3 162/1/3 161/1/3
f 165/3/3 161/3/3 164/3/3
f 166/2/3 163/2/3 162/2/3
f 166/1/3 162/1/3 165/1/3
f 167/2/3 165/2/3 164/2/3
f 167/2/3 163/2/3 166/2/3
f 167/2/3 166/2/3 165/2/3
f 168/2/3 163/2/3 167/2/3
f 169/2/3 167/2/3 164/2/3
f 169/6/3 168/6/3 167/6/3
f 170/6/3 168/6/3 169/6/3
f 171/5/3 164/5/3 159/5/3
f 171/2/3 169/2/3 164/2/3
f 171/2/3 170/2/3 169/2/3
f 172/2/3 170/2/3 171/2/3
f 173/2/3 170/2/3 172/2/3
f 174/5/3 171/5/3 159/5/3
f 175/3/3 172/3/3 171/3/3
f 175/5/3 171/5/3 174/5/3
f 176/1/3 173/1/3 172/1/3
f 176/3/3 172/3/3 175/3/3
f 177/2/3 170/2/3 173/2/3
f 177/1/3 173/1/3 176/1/3
f 178/2/3 170/2/3 177/2/3
f 181/7/3 180/7/3 179/7/3
f 182/7/3 180/7/3 181/7/3
f 185/7/3 184/7/3 183/7/3
f 186/7/3 184/7/3 185/7/3
f 191/6/3 188/6/3 187/6/3
f 192/6/3 188/6/3 191/6/3
f 193/5/3 190/5/3 189/5/3
f 194/5/3 190/5/3 193/5/3
f 195/4/3 192/4/3 191/4/3
f 196/6/3 188/6/3 192/6/3
f 196/4/3 192/4/3 195/4/3
f 197/6/3 196/6/3 195/6/3
f 198/6/3 188/6/3 196/6/3
f 198/6/3 196/6/3 197/6/3
f 201/7/3 200/7/3 199/7/3
f 202/7/3 200/7/3 201/7/3
f 205/7/3 204/7/3 203/7/3
f 206/7/3 204/7/3 205/7/3
f 209/5/3 208/5/3 207/5/3
f 210/5/3 208/5/3 209/5/3
f 211/5/4 212/5/4 213/5/4
f 213/5/4 212/5/4 214/5/4
f 215/7/4 216/7/4 217/7/4
f 217/7/4 216/7/4 218/7/4
f 219/7/4 220/7/4 221/7/4
f 221/7/4 220/7/4 222/7/4
f 223/5/4 224/5/4 225/5/4
f 225/5/4 224/5/4 226/5/4
f 227/7/4 228/7/4 231/7/4
f 231/7/4 228/7/4 232/7/4
f 229/6/4 230/6/4 233/6/4
f 233/6/4 230/6/4 234/6/4
f 233/2/4 234/2/4 237/2/4
f 234/6/4 230/6/4 238/6/4
f 237/2/4 234/2/4 238/2/4
f 235/7/4 236/7/4 239/7/4
f 239/7/4 236/7/4 240/7/4
f 237/6/4 238/6/4 241/6/4
f 238/6/4 230/6/4 242/6/4
f 241/6/4 238/6/4 242/6/4
f 243/5/4 244/5/4 248/5/4
f 244/3/4 245/3/4 248/3/4
f 245/1/4 246/1/4 249/1/4
f 248/3/4 245/3/4 249/3/4
f 246/2/4 247/2/4 250/2/4
f 249/1/4 246/1/4 250/1/4
f 248/2/4 249/2/4 251/2/4
f 243/5/4 248/5/4 251/5/4
f 249/2/4 250/2/4 251/2/4
f 251/2/4 250/2/4 252/2/4
f 243/5/4 251/5/4 253/5/4
f 251/5/4 252/5/4 253/5/4
f 252/2/4 250/2/4 254/2/4
f 253/5/4 252/5/4 254/5/4
f 243/5/4 253/5/4 255/5/4
f 253/2/4 254/2/4 255/2/4
f 254/2/4 250/2/4 256/2/4
f 255/2/4 254/2/4 256/2/4
f 250/2/4 247/2/4 257/2/4
f 256/2/4 250/2/4 257/2/4
f 243/5/4 255/5/4 258/5/4
f 255/3/4 256/3/4 259/3/4
f 258/5/4 255/5/4 259/5/4
f 256/1/4 257/1/4 260/1/4
f 259/3/4 256/3/4 260/3/4
f 257/2/4 247/2/4 261/2/4
f 260/1/4 257/1/4 261/1/4
f 261/2/4 247/2/4 262/2/4
f 267/7/5 264/7/5 263/7/5
f 268/7/5 264/7/5 267/7/5
f 269/7/5 266/7/5 265/7/5
f 270/7/5 266/7/5 269/7/5
f 275/7/5 272/7/5 271/7/5
f 276/7/5 272/7/5 275/7/5
f 277/7/5 274/7/5 273/7/5
f 278/7/5 274/7/5 277/7/5
f 281/5/5 280/5/5 279/5/5
f 282/5/5 280/5/5 281/5/5
f 283/5/5 280/5/5 282/5/5
f 284/5/5 280/5/5 283/5/5
f 289/5/5 286/5/5 285/5/5
f 289/5/5 288/5/5 287/5/5
f 289/5/5 287/5/5 286/5/5
f 290/5/5 288/5/5 289/5/5
f 291/5/5 288/5/5 290/5/5
f 292/5/5 288/5/5 291/5/5
f 297/5/5 294/5/5 293/5/5
f 297/5/5 296/5/5 295/5/5
f 297/5/5 295/5/5 294/5/5
f 298/5/5 296/5/5 297/5/5
f 301/5/5 300/5/5 299/5/5
f 302/5/5 300/5/5 301/5/5
f 305/5/5 304/5/5 303/5/5
f 306/5/5 304/5/5 305/5/5
f 307/2/6 308/2/6 311/2/6
f 308/6/6 309/6/6 312/6/6
f 311/2/6 308/2/6 312/2/6
f 309/2/6 310/2/6 313/2/6
f 312/6/6 309/6/6 313/6/6
f 313/2/6 310/2/6 314/2/6
f 307/2/6 311/2/6 315/2/6
f 311/6/6 312/6/6 316/6/6
f 315/2/6 311/2/6 316/2/6
f 312/6/6 313/6/6 316/6/6
f 313/6/6 314/6/6 316/6/6
f 314/2/6 310/2/6 317/2/6
f 316/6/6 314/6/6 317/6/6
f 317/2/6 310/2/6 318/2/6
f 307/2/6 315/2/6 319/2/6
f 315/6/6 316/6/6 320/6/6
f 319/2/6 315/2/6 320/2/6
f 316/6/6 317/6/6 320/6/6
f 317/6/6 318/6/6 320/6/6
f 318/2/6 310/2/6 321/2/6
f 320/6/6 318/6/6 321/6/6
f 321/2/6 310/2/6 322/2/6
f 307/2/6 319/2/6 323/2/6
f 319/6/6 320/6/6 324/6/6
f 323/2/6 319/2/6 324/2/6
f 320/6/6 321/6/6 324/6/6
f 321/6/6 322/6/6 324/6/6
f 322/2/6 310/2/6 325/2/6
f 324/6/6 322/6/6 325/6/6
f 325/2/6 310/2/6 326/2/6
f 323/6/6 324/6/6 327/6/6
f 324/6/6 325/6/6 327/6/6
f 325/6/6 326/6/6 327/6/6
f 327/6/6 326/6/6 328/6/6
f 328/6/6 326/6/6 329/6/6
f 329/6/6 326/6/6 330/6/6
f 331/2/6 332/2/6 335/2/6
f 333/2/6 334/2/6 335/2/6
f 332/2/6 333/2/6 335/2/6
f 335/2/6 334/2/6 336/2/6
f 337/6/6 338/6/6 339/6/6
f 339/6/6 338/6/6 340/6/6
f 337/6/6 339/6/6 341/6/6
f 339/2/6 340/2/6 341/2/6
f 340/6/6 338/6/6 342/6/6
f 341/2/6 340/2/6 342/2/6
f 337/6/6 341/6/6 343/6/6
f 341/6/6 342/6/6 343/6/6
f 342/6/6 338/6/6 344/6/6
f 343/6/6 342/6/6 344/6/6
