# MagicaVoxel @ Ephtracy

# group
o 

# material
mtllib van.mtl
usemtl palette

# normals
vn -1 0 0
vn 1 0 0
vn 0 0 1
vn 0 0 -1
vn 0 -1 0
vn 0 1 0

# texcoords
vt 0.876953 0.5
vt 0.923828 0.5
vt 0.958984 0.5
vt 0.962891 0.5
vt 0.990234 0.5

# verts
v 0 2.1 -0.1
v 0 2.1 -0.9
v 0 3 -0.1
v 0 3 -0.9
v 0.2 2 0
v 0.2 2 -0.1
v 0.2 2 -0.9
v 0.2 2 -1
v 0.2 2.1 -0.1
v 0.2 2.1 -0.9
v 0.2 2.3 0
v 0.2 2.3 -0.1
v 0.2 2.3 -0.9
v 0.2 2.3 -1
v 1.5 2 0
v 1.5 2 -0.1
v 1.5 2 -0.9
v 1.5 2 -1
v 1.5 2.1 -0.1
v 1.5 2.1 -0.9
v 1.5 2.3 0
v 1.5 2.3 -0.1
v 1.5 2.3 -0.9
v 1.5 2.3 -1
v 0.5 2 0
v 0.5 2 -0.1
v 0.5 2 -0.9
v 0.5 2 -1
v 0.5 2.1 -0.1
v 0.5 2.1 -0.9
v 0.5 2.3 0
v 0.5 2.3 -0.1
v 0.5 2.3 -0.9
v 0.5 2.3 -1
v 1.7 2.5 -0.1
v 1.7 2.5 -0.9
v 1.7 2.6 -0.2
v 1.7 2.6 -0.8
v 1.7 2.9 -0.2
v 1.7 2.9 -0.8
v 1.7 3 -0.1
v 1.7 3 -0.9
v 1.8 2 0
v 1.8 2 -0.1
v 1.8 2 -0.9
v 1.8 2 -1
v 1.8 2.1 -0.1
v 1.8 2.1 -0.9
v 1.8 2.3 0
v 1.8 2.3 -0.1
v 1.8 2.3 -0.9
v 1.8 2.3 -1
v 2 2.1 -0.1
v 2 2.1 -0.9
v 2 2.5 -0.1
v 2 2.5 -0.9
v 0.2 2 0
v 0.2 2.3 0
v 0.5 2 0
v 0.5 2.3 0
v 1.5 2 0
v 1.5 2.3 0
v 1.8 2 0
v 1.8 2.3 0
v 0 2.1 -0.1
v 0 3 -0.1
v 0.2 2.1 -0.1
v 0.2 2.3 -0.1
v 0.5 2.1 -0.1
v 0.5 2.3 -0.1
v 0.8 2.1 -0.1
v 0.8 3 -0.1
v 0.9 2.1 -0.1
v 0.9 2.4 -0.1
v 0.9 2.5 -0.1
v 0.9 2.9 -0.1
v 1.4 2.1 -0.1
v 1.4 2.4 -0.1
v 1.5 2.1 -0.1
v 1.5 2.3 -0.1
v 1.5 2.4 -0.1
v 1.6 2.5 -0.1
v 1.6 2.9 -0.1
v 1.7 2.4 -0.1
v 1.7 2.5 -0.1
v 1.7 3 -0.1
v 1.8 2.1 -0.1
v 1.8 2.3 -0.1
v 2 2.1 -0.1
v 2 2.5 -0.1
v 0.2 2 -0.9
v 0.2 2.1 -0.9
v 0.5 2 -0.9
v 0.5 2.1 -0.9
v 1.5 2 -0.9
v 1.5 2.1 -0.9
v 1.8 2 -0.9
v 1.8 2.1 -0.9
v 0.2 2 -0.1
v 0.2 2.1 -0.1
v 0.5 2 -0.1
v 0.5 2.1 -0.1
v 1.5 2 -0.1
v 1.5 2.1 -0.1
v 1.8 2 -0.1
v 1.8 2.1 -0.1
v 0 2.1 -0.9
v 0 3 -0.9
v 0.2 2.1 -0.9
v 0.2 2.3 -0.9
v 0.5 2.1 -0.9
v 0.5 2.3 -0.9
v 0.8 2.1 -0.9
v 0.8 3 -0.9
v 0.9 2.1 -0.9
v 0.9 2.4 -0.9
v 0.9 2.5 -0.9
v 0.9 2.9 -0.9
v 1.4 2.1 -0.9
v 1.4 2.4 -0.9
v 1.4 2.5 -0.9
v 1.4 2.9 -0.9
v 1.5 2.1 -0.9
v 1.5 2.3 -0.9
v 1.5 2.4 -0.9
v 1.5 2.5 -0.9
v 1.5 2.9 -0.9
v 1.7 2.4 -0.9
v 1.7 2.5 -0.9
v 1.7 3 -0.9
v 1.8 2.1 -0.9
v 1.8 2.3 -0.9
v 2 2.1 -0.9
v 2 2.5 -0.9
v 0.2 2 -1
v 0.2 2.3 -1
v 0.5 2 -1
v 0.5 2.3 -1
v 1.5 2 -1
v 1.5 2.3 -1
v 1.8 2 -1
v 1.8 2.3 -1
v 0.2 2 0
v 0.5 2 0
v 1.5 2 0
v 1.8 2 0
v 0.2 2 -0.1
v 0.5 2 -0.1
v 1.5 2 -0.1
v 1.8 2 -0.1
v 0.2 2 -0.9
v 0.5 2 -0.9
v 1.5 2 -0.9
v 1.8 2 -0.9
v 0.2 2 -1
v 0.5 2 -1
v 1.5 2 -1
v 1.8 2 -1
v 0 2.1 -0.1
v 0.2 2.1 -0.1
v 0.5 2.1 -0.1
v 0.8 2.1 -0.1
v 0.9 2.1 -0.1
v 1.4 2.1 -0.1
v 1.5 2.1 -0.1
v 1.8 2.1 -0.1
v 2 2.1 -0.1
v 0.8 2.1 -0.2
v 0.9 2.1 -0.2
v 1.4 2.1 -0.2
v 1.5 2.1 -0.2
v 0.8 2.1 -0.8
v 0.9 2.1 -0.8
v 1.4 2.1 -0.8
v 1.5 2.1 -0.8
v 0 2.1 -0.9
v 0.2 2.1 -0.9
v 0.5 2.1 -0.9
v 0.8 2.1 -0.9
v 0.9 2.1 -0.9
v 1.4 2.1 -0.9
v 1.5 2.1 -0.9
v 1.8 2.1 -0.9
v 2 2.1 -0.9
v 0.2 2.3 0
v 0.5 2.3 0
v 1.5 2.3 0
v 1.8 2.3 0
v 0.2 2.3 -0.1
v 0.5 2.3 -0.1
v 1.5 2.3 -0.1
v 1.8 2.3 -0.1
v 0.2 2.3 -0.9
v 0.5 2.3 -0.9
v 1.5 2.3 -0.9
v 1.8 2.3 -0.9
v 0.2 2.3 -1
v 0.5 2.3 -1
v 1.5 2.3 -1
v 1.8 2.3 -1
v 1.7 2.5 -0.1
v 2 2.5 -0.1
v 1.7 2.5 -0.9
v 2 2.5 -0.9
v 0 3 -0.1
v 0.8 3 -0.1
v 1.7 3 -0.1
v 0.8 3 -0.2
v 1.6 3 -0.2
v 0.8 3 -0.8
v 1.6 3 -0.8
v 0 3 -0.9
v 0.8 3 -0.9
v 1.7 3 -0.9

# faces
f 3/2/1 2/2/1 1/2/1
f 4/2/1 2/2/1 3/2/1
f 9/1/1 6/1/1 5/1/1
f 10/1/1 8/1/1 7/1/1
f 11/1/1 9/1/1 5/1/1
f 12/1/1 9/1/1 11/1/1
f 13/1/1 8/1/1 10/1/1
f 14/1/1 8/1/1 13/1/1
f 19/1/1 16/1/1 15/1/1
f 20/1/1 18/1/1 17/1/1
f 21/1/1 19/1/1 15/1/1
f 22/1/1 19/1/1 21/1/1
f 23/1/1 18/1/1 20/1/1
f 24/1/1 18/1/1 23/1/1
f 25/1/2 26/1/2 29/1/2
f 27/1/2 28/1/2 30/1/2
f 25/1/2 29/1/2 31/1/2
f 31/1/2 29/1/2 32/1/2
f 30/1/2 28/1/2 33/1/2
f 33/1/2 28/1/2 34/1/2
f 35/5/2 36/5/2 37/5/2
f 37/5/2 36/5/2 38/5/2
f 35/5/2 37/5/2 39/5/2
f 37/3/2 38/3/2 39/3/2
f 38/5/2 36/5/2 40/5/2
f 39/3/2 38/3/2 40/3/2
f 35/5/2 39/5/2 41/5/2
f 39/5/2 40/5/2 41/5/2
f 40/5/2 36/5/2 42/5/2
f 41/5/2 40/5/2 42/5/2
f 43/1/2 44/1/2 47/1/2
f 45/1/2 46/1/2 48/1/2
f 43/1/2 47/1/2 49/1/2
f 49/1/2 47/1/2 50/1/2
f 48/1/2 46/1/2 51/1/2
f 51/1/2 46/1/2 52/1/2
f 53/2/2 54/2/2 55/2/2
f 55/2/2 54/2/2 56/2/2
f 59/1/3 58/1/3 57/1/3
f 60/1/3 58/1/3 59/1/3
f 63/1/3 62/1/3 61/1/3
f 64/1/3 62/1/3 63/1/3
f 67/2/3 66/2/3 65/2/3
f 68/2/3 66/2/3 67/2/3
f 70/2/3 66/2/3 68/2/3
f 71/2/3 70/2/3 69/2/3
f 72/2/3 66/2/3 70/2/3
f 72/2/3 70/2/3 71/2/3
f 73/5/3 72/5/3 71/5/3
f 74/5/3 72/5/3 73/5/3
f 75/5/3 72/5/3 74/5/3
f 76/5/3 72/5/3 75/5/3
f 77/2/3 74/2/3 73/2/3
f 78/5/3 75/5/3 74/5/3
f 78/2/3 74/2/3 77/2/3
f 79/5/3 78/5/3 77/5/3
f 80/5/3 78/5/3 79/5/3
f 81/5/3 75/5/3 78/5/3
f 81/5/3 78/5/3 80/5/3
f 82/3/3 76/3/3 75/3/3
f 82/5/3 75/5/3 81/5/3
f 83/5/3 72/5/3 76/5/3
f 83/3/3 76/3/3 82/3/3
f 84/5/3 82/5/3 81/5/3
f 84/2/3 81/2/3 80/2/3
f 84/5/3 83/5/3 82/5/3
f 85/5/3 83/5/3 84/5/3
f 86/5/3 72/5/3 83/5/3
f 86/5/3 83/5/3 85/5/3
f 88/2/3 85/2/3 84/2/3
f 88/2/3 84/2/3 80/2/3
f 89/2/3 88/2/3 87/2/3
f 90/2/3 85/2/3 88/2/3
f 90/2/3 88/2/3 89/2/3
f 93/1/3 92/1/3 91/1/3
f 94/1/3 92/1/3 93/1/3
f 97/1/3 96/1/3 95/1/3
f 98/1/3 96/1/3 97/1/3
f 99/1/4 100/1/4 101/1/4
f 101/1/4 100/1/4 102/1/4
f 103/1/4 104/1/4 105/1/4
f 105/1/4 104/1/4 106/1/4
f 107/2/4 108/2/4 109/2/4
f 109/2/4 108/2/4 110/2/4
f 110/2/4 108/2/4 112/2/4
f 111/2/4 112/2/4 113/2/4
f 112/2/4 108/2/4 114/2/4
f 113/2/4 112/2/4 114/2/4
f 113/5/4 114/5/4 115/5/4
f 115/5/4 114/5/4 116/5/4
f 116/5/4 114/5/4 117/5/4
f 117/5/4 114/5/4 118/5/4
f 115/2/4 116/2/4 119/2/4
f 116/5/4 117/5/4 120/5/4
f 119/2/4 116/2/4 120/2/4
f 117/4/4 118/4/4 121/4/4
f 120/5/4 117/5/4 121/5/4
f 118/5/4 114/5/4 122/5/4
f 121/4/4 118/4/4 122/4/4
f 120/5/4 121/5/4 123/5/4
f 119/5/4 120/5/4 123/5/4
f 123/5/4 121/5/4 124/5/4
f 124/5/4 121/5/4 125/5/4
f 121/3/4 122/3/4 126/3/4
f 125/5/4 121/5/4 126/5/4
f 122/5/4 114/5/4 127/5/4
f 126/3/4 122/3/4 127/3/4
f 125/5/4 126/5/4 128/5/4
f 124/2/4 125/2/4 128/2/4
f 126/5/4 127/5/4 128/5/4
f 128/5/4 127/5/4 129/5/4
f 127/5/4 114/5/4 130/5/4
f 129/5/4 127/5/4 130/5/4
f 128/2/4 129/2/4 132/2/4
f 124/2/4 128/2/4 132/2/4
f 131/2/4 132/2/4 133/2/4
f 132/2/4 129/2/4 134/2/4
f 133/2/4 132/2/4 134/2/4
f 135/1/4 136/1/4 137/1/4
f 137/1/4 136/1/4 138/1/4
f 139/1/4 140/1/4 141/1/4
f 141/1/4 140/1/4 142/1/4
f 147/1/5 144/1/5 143/1/5
f 148/1/5 144/1/5 147/1/5
f 149/1/5 146/1/5 145/1/5
f 150/1/5 146/1/5 149/1/5
f 155/1/5 152/1/5 151/1/5
f 156/1/5 152/1/5 155/1/5
f 157/1/5 154/1/5 153/1/5
f 158/1/5 154/1/5 157/1/5
f 168/2/5 160/2/5 159/2/5
f 168/2/5 161/2/5 160/2/5
f 168/2/5 162/2/5 161/2/5
f 168/5/5 163/5/5 162/5/5
f 169/2/5 164/2/5 163/2/5
f 169/5/5 163/5/5 168/5/5
f 170/5/5 165/5/5 164/5/5
f 170/2/5 164/2/5 169/2/5
f 171/2/5 167/2/5 166/2/5
f 171/5/5 165/5/5 170/5/5
f 171/2/5 166/2/5 165/2/5
f 172/2/5 170/2/5 169/2/5
f 172/2/5 168/2/5 159/2/5
f 172/2/5 171/2/5 170/2/5
f 172/2/5 169/2/5 168/2/5
f 173/2/5 171/2/5 172/2/5
f 174/2/5 171/2/5 173/2/5
f 175/2/5 167/2/5 171/2/5
f 175/2/5 171/2/5 174/2/5
f 176/2/5 172/2/5 159/2/5
f 177/2/5 172/2/5 176/2/5
f 178/2/5 172/2/5 177/2/5
f 179/5/5 173/5/5 172/5/5
f 179/2/5 172/2/5 178/2/5
f 180/2/5 174/2/5 173/2/5
f 180/5/5 173/5/5 179/5/5
f 181/5/5 175/5/5 174/5/5
f 181/2/5 174/2/5 180/2/5
f 182/2/5 167/2/5 175/2/5
f 182/5/5 175/5/5 181/5/5
f 183/2/5 167/2/5 182/2/5
f 184/2/5 167/2/5 183/2/5
f 185/1/6 186/1/6 189/1/6
f 189/1/6 186/1/6 190/1/6
f 187/1/6 188/1/6 191/1/6
f 191/1/6 188/1/6 192/1/6
f 193/1/6 194/1/6 197/1/6
f 197/1/6 194/1/6 198/1/6
f 195/1/6 196/1/6 199/1/6
f 199/1/6 196/1/6 200/1/6
f 201/2/6 202/2/6 203/2/6
f 203/2/6 202/2/6 204/2/6
f 205/2/6 206/2/6 208/2/6
f 206/5/6 207/5/6 208/5/6
f 208/5/6 207/5/6 209/5/6
f 205/2/6 208/2/6 210/2/6
f 208/2/6 209/2/6 210/2/6
f 209/5/6 207/5/6 211/5/6
f 210/2/6 209/2/6 211/2/6
f 205/2/6 210/2/6 212/2/6
f 210/5/6 211/5/6 213/5/6
f 212/2/6 210/2/6 213/2/6
f 211/5/6 207/5/6 214/5/6
f 213/5/6 211/5/6 214/5/6
